<svg width="519" height="67" viewBox="0 0 519 67" fill="none" xmlns="http://www.w3.org/2000/svg">
<path d="M14.664 52.896C11.6773 52.896 9.07467 52.1493 6.856 50.656C4.68 49.1627 2.99467 47.008 1.8 44.192C0.605333 41.376 0.00800014 38.0053 0.00800014 34.08C0.00800014 30.1973 0.712 26.8693 2.12 24.096C3.57067 21.28 5.448 19.104 7.752 17.568C10.056 16.032 12.488 15.264 15.048 15.264C17.0533 15.264 18.7387 15.6267 20.104 16.352C21.512 17.0347 22.856 17.9733 24.136 19.168L23.816 13.536V0.927998H33.224V52H25.544L24.84 48.288H24.584C23.2613 49.568 21.7467 50.656 20.04 51.552C18.3333 52.448 16.5413 52.896 14.664 52.896ZM17.096 45.152C18.376 45.152 19.5493 44.8747 20.616 44.32C21.7253 43.7227 22.792 42.7627 23.816 41.44V25.696C22.7493 24.7147 21.64 24.032 20.488 23.648C19.3787 23.2213 18.248 23.008 17.096 23.008C15.7733 23.008 14.536 23.4347 13.384 24.288C12.2747 25.0987 11.3787 26.3147 10.696 27.936C10.0133 29.5573 9.672 31.5627 9.672 33.952C9.672 36.4267 9.94933 38.496 10.504 40.16C11.1013 41.824 11.9547 43.0827 13.064 43.936C14.1733 44.7467 15.5173 45.152 17.096 45.152ZM69.2915 52.896C67.2008 52.896 65.3448 52.448 63.7235 51.552C62.1448 50.6133 60.9075 49.3333 60.0115 47.712C59.1582 46.0907 58.7315 44.256 58.7315 42.208C58.7315 38.4107 60.3742 35.4667 63.6595 33.376C66.9448 31.2427 72.1715 29.792 79.3395 29.024C79.2968 27.8293 79.0835 26.784 78.6995 25.888C78.3155 24.9493 77.6755 24.2027 76.7795 23.648C75.9262 23.0933 74.7528 22.816 73.2595 22.816C71.5955 22.816 69.9528 23.136 68.3315 23.776C66.7102 24.416 65.0675 25.248 63.4035 26.272L60.0755 20C61.4835 19.104 62.9768 18.3147 64.5555 17.632C66.1342 16.9493 67.7982 16.3947 69.5475 15.968C71.2968 15.4987 73.1102 15.264 74.9875 15.264C78.0168 15.264 80.5555 15.8613 82.6035 17.056C84.6515 18.2507 86.1875 20.0213 87.2115 22.368C88.2355 24.7147 88.7475 27.616 88.7475 31.072V52H81.0675L80.4275 48.16H80.1075C78.5715 49.5253 76.9075 50.656 75.1155 51.552C73.3235 52.448 71.3822 52.896 69.2915 52.896ZM72.4275 45.536C73.7502 45.536 74.9448 45.2373 76.0115 44.64C77.1208 44 78.2302 43.1253 79.3395 42.016V34.848C76.4382 35.1893 74.1342 35.68 72.4275 36.32C70.7208 36.96 69.5048 37.728 68.7795 38.624C68.0542 39.4773 67.6915 40.4373 67.6915 41.504C67.6915 42.912 68.1182 43.936 68.9715 44.576C69.8675 45.216 71.0195 45.536 72.4275 45.536ZM115.616 52V16.16H125.024V52H115.616ZM120.352 10.336C118.688 10.336 117.365 9.888 116.384 8.992C115.403 8.05333 114.912 6.79467 114.912 5.216C114.912 3.68 115.403 2.44267 116.384 1.504C117.365 0.565331 118.688 0.0959969 120.352 0.0959969C121.931 0.0959969 123.232 0.565331 124.256 1.504C125.28 2.44267 125.792 3.68 125.792 5.216C125.792 6.79467 125.28 8.05333 124.256 8.992C123.232 9.888 121.931 10.336 120.352 10.336ZM162.573 52.896C160.184 52.896 157.752 52.4267 155.277 51.488C152.845 50.5493 150.733 49.3547 148.941 47.904L153.229 41.952C154.808 43.1467 156.365 44.1067 157.901 44.832C159.48 45.5147 161.123 45.856 162.829 45.856C164.621 45.856 165.923 45.5147 166.733 44.832C167.587 44.1067 168.013 43.1893 168.013 42.08C168.013 41.184 167.651 40.4373 166.925 39.84C166.2 39.2 165.261 38.6453 164.109 38.176C162.957 37.664 161.763 37.1733 160.525 36.704C159.032 36.1067 157.539 35.3813 156.045 34.528C154.595 33.6747 153.379 32.5867 152.397 31.264C151.416 29.8987 150.925 28.2133 150.925 26.208C150.925 24.0747 151.48 22.1973 152.589 20.576C153.699 18.912 155.235 17.6107 157.197 16.672C159.203 15.7333 161.571 15.264 164.301 15.264C166.904 15.264 169.208 15.712 171.213 16.608C173.261 17.504 175.011 18.528 176.461 19.68L172.237 25.376C170.957 24.4373 169.677 23.6907 168.397 23.136C167.16 22.5813 165.88 22.304 164.557 22.304C162.893 22.304 161.677 22.624 160.909 23.264C160.141 23.904 159.757 24.736 159.757 25.76C159.757 26.6133 160.077 27.3387 160.717 27.936C161.357 28.4907 162.232 28.9813 163.341 29.408C164.451 29.8347 165.624 30.2827 166.861 30.752C168.056 31.1787 169.229 31.6907 170.381 32.288C171.576 32.8427 172.664 33.5253 173.645 34.336C174.627 35.1467 175.395 36.1493 175.949 37.344C176.547 38.496 176.845 39.904 176.845 41.568C176.845 43.6587 176.291 45.5787 175.181 47.328C174.115 49.0347 172.515 50.4 170.381 51.424C168.291 52.4053 165.688 52.896 162.573 52.896ZM204.437 66.336C203.37 66.336 202.453 66.272 201.685 66.144C200.917 66.016 200.192 65.8453 199.509 65.632L201.237 58.464C201.578 58.5493 201.962 58.6347 202.389 58.72C202.858 58.848 203.306 58.912 203.733 58.912C205.568 58.912 207.018 58.4 208.085 57.376C209.152 56.352 209.941 55.0507 210.453 53.472L211.093 51.296L197.141 16.16H206.613L212.309 32.8C212.864 34.4213 213.376 36.0853 213.845 37.792C214.314 39.4987 214.805 41.2053 215.317 42.912H215.637C216.021 41.2053 216.426 39.52 216.853 37.856C217.322 36.1493 217.77 34.464 218.197 32.8L223.125 16.16H232.149L219.413 53.088C218.389 55.904 217.216 58.2933 215.893 60.256C214.57 62.2613 212.992 63.776 211.157 64.8C209.365 65.824 207.125 66.336 204.437 66.336ZM251.171 61.92V56.48H285.667V61.92H251.171ZM319.163 52.896C316.774 52.896 314.342 52.4267 311.867 51.488C309.435 50.5493 307.323 49.3547 305.531 47.904L309.819 41.952C311.398 43.1467 312.955 44.1067 314.491 44.832C316.07 45.5147 317.713 45.856 319.419 45.856C321.211 45.856 322.513 45.5147 323.323 44.832C324.177 44.1067 324.603 43.1893 324.603 42.08C324.603 41.184 324.241 40.4373 323.515 39.84C322.79 39.2 321.851 38.6453 320.699 38.176C319.547 37.664 318.353 37.1733 317.115 36.704C315.622 36.1067 314.129 35.3813 312.635 34.528C311.185 33.6747 309.969 32.5867 308.987 31.264C308.006 29.8987 307.515 28.2133 307.515 26.208C307.515 24.0747 308.07 22.1973 309.179 20.576C310.289 18.912 311.825 17.6107 313.787 16.672C315.793 15.7333 318.161 15.264 320.891 15.264C323.494 15.264 325.798 15.712 327.803 16.608C329.851 17.504 331.601 18.528 333.051 19.68L328.827 25.376C327.547 24.4373 326.267 23.6907 324.987 23.136C323.75 22.5813 322.47 22.304 321.147 22.304C319.483 22.304 318.267 22.624 317.499 23.264C316.731 23.904 316.347 24.736 316.347 25.76C316.347 26.6133 316.667 27.3387 317.307 27.936C317.947 28.4907 318.822 28.9813 319.931 29.408C321.041 29.8347 322.214 30.2827 323.451 30.752C324.646 31.1787 325.819 31.6907 326.971 32.288C328.166 32.8427 329.254 33.5253 330.235 34.336C331.217 35.1467 331.985 36.1493 332.539 37.344C333.137 38.496 333.435 39.904 333.435 41.568C333.435 43.6587 332.881 45.5787 331.771 47.328C330.705 49.0347 329.105 50.4 326.971 51.424C324.881 52.4053 322.278 52.896 319.163 52.896ZM366.659 52.896C364.568 52.896 362.712 52.448 361.091 51.552C359.512 50.6133 358.275 49.3333 357.379 47.712C356.526 46.0907 356.099 44.256 356.099 42.208C356.099 38.4107 357.742 35.4667 361.027 33.376C364.312 31.2427 369.539 29.792 376.707 29.024C376.664 27.8293 376.451 26.784 376.067 25.888C375.683 24.9493 375.043 24.2027 374.147 23.648C373.294 23.0933 372.12 22.816 370.627 22.816C368.963 22.816 367.32 23.136 365.699 23.776C364.078 24.416 362.435 25.248 360.771 26.272L357.443 20C358.851 19.104 360.344 18.3147 361.923 17.632C363.502 16.9493 365.166 16.3947 366.915 15.968C368.664 15.4987 370.478 15.264 372.355 15.264C375.384 15.264 377.923 15.8613 379.971 17.056C382.019 18.2507 383.555 20.0213 384.579 22.368C385.603 24.7147 386.115 27.616 386.115 31.072V52H378.435L377.795 48.16H377.475C375.939 49.5253 374.275 50.656 372.483 51.552C370.691 52.448 368.75 52.896 366.659 52.896ZM369.795 45.536C371.118 45.536 372.312 45.2373 373.379 44.64C374.488 44 375.598 43.1253 376.707 42.016V34.848C373.806 35.1893 371.502 35.68 369.795 36.32C368.088 36.96 366.872 37.728 366.147 38.624C365.422 39.4773 365.059 40.4373 365.059 41.504C365.059 42.912 365.486 43.936 366.339 44.576C367.235 45.216 368.387 45.536 369.795 45.536ZM412.983 52V16.16H422.391V52H412.983ZM417.719 10.336C416.055 10.336 414.733 9.888 413.751 8.992C412.77 8.05333 412.279 6.79467 412.279 5.216C412.279 3.68 412.77 2.44267 413.751 1.504C414.733 0.565331 416.055 0.0959969 417.719 0.0959969C419.298 0.0959969 420.599 0.565331 421.623 1.504C422.647 2.44267 423.159 3.68 423.159 5.216C423.159 6.79467 422.647 8.05333 421.623 8.992C420.599 9.888 419.298 10.336 417.719 10.336ZM447.205 66.656C445.797 66.656 444.624 66.5493 443.685 66.336C442.704 66.1653 441.872 65.9307 441.189 65.632L442.853 58.72C443.322 58.8907 443.813 59.0187 444.325 59.104C444.837 59.1893 445.349 59.232 445.861 59.232C447.354 59.232 448.378 58.72 448.933 57.696C449.488 56.672 449.765 55.1573 449.765 53.152V16.16H459.237V52.896C459.237 55.456 458.853 57.76 458.085 59.808C457.36 61.8987 456.101 63.5627 454.309 64.8C452.56 66.0373 450.192 66.656 447.205 66.656ZM454.437 10.336C452.858 10.336 451.557 9.888 450.533 8.992C449.509 8.05333 448.997 6.79467 448.997 5.216C448.997 3.68 449.509 2.44267 450.533 1.504C451.557 0.565331 452.858 0.0959969 454.437 0.0959969C456.058 0.0959969 457.381 0.565331 458.405 1.504C459.429 2.44267 459.941 3.68 459.941 5.216C459.941 6.79467 459.429 8.05333 458.405 8.992C457.381 9.888 456.058 10.336 454.437 10.336ZM501.52 52.896C498.533 52.896 495.717 52.1493 493.072 50.656C490.469 49.1627 488.357 47.0293 486.736 44.256C485.114 41.44 484.304 38.048 484.304 34.08C484.304 30.112 485.114 26.7413 486.736 23.968C488.357 21.152 490.469 18.9973 493.072 17.504C495.717 16.0107 498.533 15.264 501.52 15.264C503.781 15.264 505.936 15.6907 507.984 16.544C510.032 17.3973 511.866 18.6347 513.488 20.256C515.109 21.8347 516.389 23.7973 517.328 26.144C518.266 28.448 518.736 31.0933 518.736 34.08C518.736 38.048 517.925 41.44 516.304 44.256C514.682 47.0293 512.549 49.1627 509.904 50.656C507.301 52.1493 504.506 52.896 501.52 52.896ZM501.52 45.216C503.141 45.216 504.506 44.768 505.616 43.872C506.768 42.9333 507.621 41.632 508.176 39.968C508.773 38.304 509.072 36.3413 509.072 34.08C509.072 31.8187 508.773 29.856 508.176 28.192C507.621 26.528 506.768 25.248 505.616 24.352C504.506 23.4133 503.141 22.944 501.52 22.944C499.898 22.944 498.512 23.4133 497.36 24.352C496.25 25.248 495.397 26.528 494.8 28.192C494.245 29.856 493.968 31.8187 493.968 34.08C493.968 36.3413 494.245 38.304 494.8 39.968C495.397 41.632 496.25 42.9333 497.36 43.872C498.512 44.768 499.898 45.216 501.52 45.216Z" fill="#FFFFFB"/>
</svg>
