<svg width="525" height="159" viewBox="0 0 525 159" fill="none" xmlns="http://www.w3.org/2000/svg">
<path d="M17.664 140.896C14.6773 140.896 12.0747 140.149 9.856 138.656C7.68 137.163 5.99467 135.008 4.8 132.192C3.60533 129.376 3.008 126.005 3.008 122.08C3.008 118.197 3.712 114.869 5.12 112.096C6.57067 109.28 8.448 107.104 10.752 105.568C13.056 104.032 15.488 103.264 18.048 103.264C20.0533 103.264 21.7387 103.627 23.104 104.352C24.512 105.035 25.856 105.973 27.136 107.168L26.816 101.536V88.928H36.224V140H28.544L27.84 136.288H27.584C26.2613 137.568 24.7467 138.656 23.04 139.552C21.3333 140.448 19.5413 140.896 17.664 140.896ZM20.096 133.152C21.376 133.152 22.5493 132.875 23.616 132.32C24.7253 131.723 25.792 130.763 26.816 129.44V113.696C25.7493 112.715 24.64 112.032 23.488 111.648C22.3787 111.221 21.248 111.008 20.096 111.008C18.7733 111.008 17.536 111.435 16.384 112.288C15.2747 113.099 14.3787 114.315 13.696 115.936C13.0133 117.557 12.672 119.563 12.672 121.952C12.672 124.427 12.9493 126.496 13.504 128.16C14.1013 129.824 14.9547 131.083 16.064 131.936C17.1733 132.747 18.5173 133.152 20.096 133.152ZM72.2915 140.896C70.2008 140.896 68.3448 140.448 66.7235 139.552C65.1448 138.613 63.9075 137.333 63.0115 135.712C62.1582 134.091 61.7315 132.256 61.7315 130.208C61.7315 126.411 63.3742 123.467 66.6595 121.376C69.9448 119.243 75.1715 117.792 82.3395 117.024C82.2968 115.829 82.0835 114.784 81.6995 113.888C81.3155 112.949 80.6755 112.203 79.7795 111.648C78.9262 111.093 77.7528 110.816 76.2595 110.816C74.5955 110.816 72.9528 111.136 71.3315 111.776C69.7102 112.416 68.0675 113.248 66.4035 114.272L63.0755 108C64.4835 107.104 65.9768 106.315 67.5555 105.632C69.1342 104.949 70.7982 104.395 72.5475 103.968C74.2968 103.499 76.1102 103.264 77.9875 103.264C81.0168 103.264 83.5555 103.861 85.6035 105.056C87.6515 106.251 89.1875 108.021 90.2115 110.368C91.2355 112.715 91.7475 115.616 91.7475 119.072V140H84.0675L83.4275 136.16H83.1075C81.5715 137.525 79.9075 138.656 78.1155 139.552C76.3235 140.448 74.3822 140.896 72.2915 140.896ZM75.4275 133.536C76.7502 133.536 77.9448 133.237 79.0115 132.64C80.1208 132 81.2302 131.125 82.3395 130.016V122.848C79.4382 123.189 77.1342 123.68 75.4275 124.32C73.7208 124.96 72.5048 125.728 71.7795 126.624C71.0542 127.477 70.6915 128.437 70.6915 129.504C70.6915 130.912 71.1182 131.936 71.9715 132.576C72.8675 133.216 74.0195 133.536 75.4275 133.536ZM118.616 140V104.16H128.024V140H118.616ZM123.352 98.336C121.688 98.336 120.365 97.888 119.384 96.992C118.403 96.0533 117.912 94.7947 117.912 93.216C117.912 91.68 118.403 90.4427 119.384 89.504C120.365 88.5653 121.688 88.096 123.352 88.096C124.931 88.096 126.232 88.5653 127.256 89.504C128.28 90.4427 128.792 91.68 128.792 93.216C128.792 94.7947 128.28 96.0533 127.256 96.992C126.232 97.888 124.931 98.336 123.352 98.336ZM165.573 140.896C163.184 140.896 160.752 140.427 158.277 139.488C155.845 138.549 153.733 137.355 151.941 135.904L156.229 129.952C157.808 131.147 159.365 132.107 160.901 132.832C162.48 133.515 164.123 133.856 165.829 133.856C167.621 133.856 168.923 133.515 169.733 132.832C170.587 132.107 171.013 131.189 171.013 130.08C171.013 129.184 170.651 128.437 169.925 127.84C169.2 127.2 168.261 126.645 167.109 126.176C165.957 125.664 164.763 125.173 163.525 124.704C162.032 124.107 160.539 123.381 159.045 122.528C157.595 121.675 156.379 120.587 155.397 119.264C154.416 117.899 153.925 116.213 153.925 114.208C153.925 112.075 154.48 110.197 155.589 108.576C156.699 106.912 158.235 105.611 160.197 104.672C162.203 103.733 164.571 103.264 167.301 103.264C169.904 103.264 172.208 103.712 174.213 104.608C176.261 105.504 178.011 106.528 179.461 107.68L175.237 113.376C173.957 112.437 172.677 111.691 171.397 111.136C170.16 110.581 168.88 110.304 167.557 110.304C165.893 110.304 164.677 110.624 163.909 111.264C163.141 111.904 162.757 112.736 162.757 113.76C162.757 114.613 163.077 115.339 163.717 115.936C164.357 116.491 165.232 116.981 166.341 117.408C167.451 117.835 168.624 118.283 169.861 118.752C171.056 119.179 172.229 119.691 173.381 120.288C174.576 120.843 175.664 121.525 176.645 122.336C177.627 123.147 178.395 124.149 178.949 125.344C179.547 126.496 179.845 127.904 179.845 129.568C179.845 131.659 179.291 133.579 178.181 135.328C177.115 137.035 175.515 138.4 173.381 139.424C171.291 140.405 168.688 140.896 165.573 140.896ZM207.437 154.336C206.37 154.336 205.453 154.272 204.685 154.144C203.917 154.016 203.192 153.845 202.509 153.632L204.237 146.464C204.578 146.549 204.962 146.635 205.389 146.72C205.858 146.848 206.306 146.912 206.733 146.912C208.568 146.912 210.018 146.4 211.085 145.376C212.152 144.352 212.941 143.051 213.453 141.472L214.093 139.296L200.141 104.16H209.613L215.309 120.8C215.864 122.421 216.376 124.085 216.845 125.792C217.314 127.499 217.805 129.205 218.317 130.912H218.637C219.021 129.205 219.426 127.52 219.853 125.856C220.322 124.149 220.77 122.464 221.197 120.8L226.125 104.16H235.149L222.413 141.088C221.389 143.904 220.216 146.293 218.893 148.256C217.57 150.261 215.992 151.776 214.157 152.8C212.365 153.824 210.125 154.336 207.437 154.336ZM254.171 149.92V144.48H288.667V149.92H254.171ZM322.163 140.896C319.774 140.896 317.342 140.427 314.867 139.488C312.435 138.549 310.323 137.355 308.531 135.904L312.819 129.952C314.398 131.147 315.955 132.107 317.491 132.832C319.07 133.515 320.713 133.856 322.419 133.856C324.211 133.856 325.513 133.515 326.323 132.832C327.177 132.107 327.603 131.189 327.603 130.08C327.603 129.184 327.241 128.437 326.515 127.84C325.79 127.2 324.851 126.645 323.699 126.176C322.547 125.664 321.353 125.173 320.115 124.704C318.622 124.107 317.129 123.381 315.635 122.528C314.185 121.675 312.969 120.587 311.987 119.264C311.006 117.899 310.515 116.213 310.515 114.208C310.515 112.075 311.07 110.197 312.179 108.576C313.289 106.912 314.825 105.611 316.787 104.672C318.793 103.733 321.161 103.264 323.891 103.264C326.494 103.264 328.798 103.712 330.803 104.608C332.851 105.504 334.601 106.528 336.051 107.68L331.827 113.376C330.547 112.437 329.267 111.691 327.987 111.136C326.75 110.581 325.47 110.304 324.147 110.304C322.483 110.304 321.267 110.624 320.499 111.264C319.731 111.904 319.347 112.736 319.347 113.76C319.347 114.613 319.667 115.339 320.307 115.936C320.947 116.491 321.822 116.981 322.931 117.408C324.041 117.835 325.214 118.283 326.451 118.752C327.646 119.179 328.819 119.691 329.971 120.288C331.166 120.843 332.254 121.525 333.235 122.336C334.217 123.147 334.985 124.149 335.539 125.344C336.137 126.496 336.435 127.904 336.435 129.568C336.435 131.659 335.881 133.579 334.771 135.328C333.705 137.035 332.105 138.4 329.971 139.424C327.881 140.405 325.278 140.896 322.163 140.896ZM369.659 140.896C367.568 140.896 365.712 140.448 364.091 139.552C362.512 138.613 361.275 137.333 360.379 135.712C359.526 134.091 359.099 132.256 359.099 130.208C359.099 126.411 360.742 123.467 364.027 121.376C367.312 119.243 372.539 117.792 379.707 117.024C379.664 115.829 379.451 114.784 379.067 113.888C378.683 112.949 378.043 112.203 377.147 111.648C376.294 111.093 375.12 110.816 373.627 110.816C371.963 110.816 370.32 111.136 368.699 111.776C367.078 112.416 365.435 113.248 363.771 114.272L360.443 108C361.851 107.104 363.344 106.315 364.923 105.632C366.502 104.949 368.166 104.395 369.915 103.968C371.664 103.499 373.478 103.264 375.355 103.264C378.384 103.264 380.923 103.861 382.971 105.056C385.019 106.251 386.555 108.021 387.579 110.368C388.603 112.715 389.115 115.616 389.115 119.072V140H381.435L380.795 136.16H380.475C378.939 137.525 377.275 138.656 375.483 139.552C373.691 140.448 371.75 140.896 369.659 140.896ZM372.795 133.536C374.118 133.536 375.312 133.237 376.379 132.64C377.488 132 378.598 131.125 379.707 130.016V122.848C376.806 123.189 374.502 123.68 372.795 124.32C371.088 124.96 369.872 125.728 369.147 126.624C368.422 127.477 368.059 128.437 368.059 129.504C368.059 130.912 368.486 131.936 369.339 132.576C370.235 133.216 371.387 133.536 372.795 133.536ZM415.983 140V104.16H425.391V140H415.983ZM420.719 98.336C419.055 98.336 417.733 97.888 416.751 96.992C415.77 96.0533 415.279 94.7947 415.279 93.216C415.279 91.68 415.77 90.4427 416.751 89.504C417.733 88.5653 419.055 88.096 420.719 88.096C422.298 88.096 423.599 88.5653 424.623 89.504C425.647 90.4427 426.159 91.68 426.159 93.216C426.159 94.7947 425.647 96.0533 424.623 96.992C423.599 97.888 422.298 98.336 420.719 98.336ZM450.205 154.656C448.797 154.656 447.624 154.549 446.685 154.336C445.704 154.165 444.872 153.931 444.189 153.632L445.853 146.72C446.322 146.891 446.813 147.019 447.325 147.104C447.837 147.189 448.349 147.232 448.861 147.232C450.354 147.232 451.378 146.72 451.933 145.696C452.488 144.672 452.765 143.157 452.765 141.152V104.16H462.237V140.896C462.237 143.456 461.853 145.76 461.085 147.808C460.36 149.899 459.101 151.563 457.309 152.8C455.56 154.037 453.192 154.656 450.205 154.656ZM457.437 98.336C455.858 98.336 454.557 97.888 453.533 96.992C452.509 96.0533 451.997 94.7947 451.997 93.216C451.997 91.68 452.509 90.4427 453.533 89.504C454.557 88.5653 455.858 88.096 457.437 88.096C459.058 88.096 460.381 88.5653 461.405 89.504C462.429 90.4427 462.941 91.68 462.941 93.216C462.941 94.7947 462.429 96.0533 461.405 96.992C460.381 97.888 459.058 98.336 457.437 98.336ZM504.52 140.896C501.533 140.896 498.717 140.149 496.072 138.656C493.469 137.163 491.357 135.029 489.736 132.256C488.114 129.44 487.304 126.048 487.304 122.08C487.304 118.112 488.114 114.741 489.736 111.968C491.357 109.152 493.469 106.997 496.072 105.504C498.717 104.011 501.533 103.264 504.52 103.264C506.781 103.264 508.936 103.691 510.984 104.544C513.032 105.397 514.866 106.635 516.488 108.256C518.109 109.835 519.389 111.797 520.328 114.144C521.266 116.448 521.736 119.093 521.736 122.08C521.736 126.048 520.925 129.44 519.304 132.256C517.682 135.029 515.549 137.163 512.904 138.656C510.301 140.149 507.506 140.896 504.52 140.896ZM504.52 133.216C506.141 133.216 507.506 132.768 508.616 131.872C509.768 130.933 510.621 129.632 511.176 127.968C511.773 126.304 512.072 124.341 512.072 122.08C512.072 119.819 511.773 117.856 511.176 116.192C510.621 114.528 509.768 113.248 508.616 112.352C507.506 111.413 506.141 110.944 504.52 110.944C502.898 110.944 501.512 111.413 500.36 112.352C499.25 113.248 498.397 114.528 497.8 116.192C497.245 117.856 496.968 119.819 496.968 122.08C496.968 124.341 497.245 126.304 497.8 127.968C498.397 129.632 499.25 130.933 500.36 131.872C501.512 132.768 502.898 133.216 504.52 133.216Z" fill="#FFFFFB"/>
<path d="M3.904 37C2.944 37 2.464 36.488 2.464 35.464V16.136C2.464 15.112 2.944 14.6 3.904 14.6H4.224C4.992 14.6 5.6 14.9307 6.048 15.592L16.864 31.848V16.136C16.864 15.112 17.3653 14.6 18.368 14.6C19.328 14.6 19.808 15.112 19.808 16.136V35.464C19.808 36.488 19.3387 37 18.4 37H18.176C17.344 37 16.736 36.6693 16.352 36.008L5.376 19.432V35.464C5.376 36.488 4.88533 37 3.904 37ZM32.234 37C31.274 37 30.794 36.488 30.794 35.464V16.104C30.794 15.1013 31.2953 14.6 32.298 14.6H40.81C42.922 14.6 44.554 15.0907 45.706 16.072C46.8793 17.0533 47.466 18.6107 47.466 20.744C47.466 22.8987 46.8793 24.4773 45.706 25.48C44.554 26.4827 42.922 26.984 40.81 26.984H33.706V35.464C33.706 36.488 33.2153 37 32.234 37ZM33.706 24.2H40.458C41.738 24.2 42.7087 23.9333 43.37 23.4C44.0527 22.8453 44.394 21.96 44.394 20.744C44.394 19.5493 44.0527 18.6853 43.37 18.152C42.7087 17.6187 41.738 17.352 40.458 17.352H33.706V24.2ZM66.2463 37.48C64.2196 37.48 62.4276 37 60.8703 36.04C59.3129 35.08 58.0862 33.7253 57.1902 31.976C56.3156 30.2267 55.8782 28.168 55.8782 25.8C55.8782 23.432 56.3156 21.3733 57.1902 19.624C58.0862 17.8533 59.3129 16.488 60.8703 15.528C62.4276 14.5467 64.2196 14.056 66.2463 14.056C68.2729 14.056 70.0543 14.5467 71.5903 15.528C73.1476 16.488 74.3636 17.8533 75.2383 19.624C76.1343 21.3733 76.5823 23.432 76.5823 25.8C76.5823 28.168 76.1343 30.2267 75.2383 31.976C74.3636 33.7253 73.1476 35.08 71.5903 36.04C70.0543 37 68.2729 37.48 66.2463 37.48ZM66.2463 34.6C67.6969 34.6 68.9663 34.2373 70.0543 33.512C71.1636 32.7867 72.0169 31.7733 72.6143 30.472C73.2329 29.1493 73.5423 27.592 73.5423 25.8C73.5423 23.9867 73.2329 22.4293 72.6143 21.128C72.0169 19.8053 71.1636 18.7813 70.0543 18.056C68.9663 17.3307 67.6969 16.968 66.2463 16.968C64.7956 16.968 63.5156 17.3307 62.4062 18.056C61.3183 18.7813 60.4649 19.8053 59.8463 21.128C59.2276 22.4293 58.9183 23.9867 58.9183 25.8C58.9183 27.592 59.2276 29.1493 59.8463 30.472C60.4649 31.7733 61.3183 32.7867 62.4062 33.512C63.5156 34.2373 64.7956 34.6 66.2463 34.6ZM106.805 39.208C106.4 39.208 106.059 39.08 105.781 38.824C105.504 38.5893 105.344 38.2693 105.301 37.864C105.28 37.4373 105.387 37.0853 105.621 36.808C105.877 36.5093 106.219 36.3493 106.645 36.328C107.563 36.2853 108.256 36.1893 108.725 36.04C109.216 35.8907 109.568 35.592 109.781 35.144C110.016 34.696 110.197 34.024 110.325 33.128C110.496 32.0187 110.624 30.5787 110.709 28.808C110.816 27.0373 110.88 25.0853 110.901 22.952C110.901 22.2267 110.827 21.6933 110.677 21.352C110.549 20.9893 110.293 20.7547 109.909 20.648C109.525 20.52 108.96 20.456 108.213 20.456H108.117C108.032 24.9573 107.445 28.7013 106.357 31.688C105.291 34.6533 103.648 37.0853 101.429 38.984C101.131 39.24 100.768 39.3787 100.341 39.4C99.9359 39.4427 99.5839 39.304 99.2852 38.984C99.0506 38.728 98.9439 38.4187 98.9652 38.056C98.9866 37.6933 99.1359 37.3947 99.4132 37.16C99.6266 36.9893 99.8292 36.8187 100.021 36.648C100.235 36.456 100.437 36.264 100.629 36.072C100.544 36.1147 100.469 36.136 100.405 36.136C99.5732 36.2853 98.5919 36.4453 97.4612 36.616C96.3306 36.7653 95.1359 36.9147 93.8772 37.064C92.6399 37.2133 91.3919 37.352 90.1332 37.48C88.8746 37.608 87.7012 37.7147 86.6132 37.8C86.2292 37.8213 85.8986 37.7253 85.6212 37.512C85.3652 37.2987 85.2159 37 85.1732 36.616C85.1519 36.2533 85.2479 35.944 85.4612 35.688C85.6746 35.432 85.9626 35.2933 86.3252 35.272C87.1999 35.2293 88.1599 35.1653 89.2052 35.08C90.2506 34.9733 91.3279 34.8773 92.4372 34.792V32.456H86.7412C86.4212 32.456 86.1652 32.3493 85.9732 32.136C85.8026 31.9013 85.7172 31.6453 85.7172 31.368C85.7172 31.0907 85.8026 30.8453 85.9732 30.632C86.1652 30.3973 86.4212 30.28 86.7412 30.28H92.4372V28.68H91.7972C90.4106 28.68 89.3332 28.552 88.5652 28.296C87.8186 28.04 87.2959 27.5813 86.9972 26.92C86.7199 26.2373 86.5812 25.256 86.5812 23.976C86.5812 22.6747 86.7199 21.6933 86.9972 21.032C87.2959 20.3493 87.8186 19.88 88.5652 19.624C89.3332 19.368 90.4106 19.24 91.7972 19.24H92.4372V17.8H86.0372C85.7172 17.8 85.4612 17.6933 85.2692 17.48C85.0772 17.2453 84.9812 16.9893 84.9812 16.712C84.9812 16.4133 85.0772 16.1573 85.2692 15.944C85.4612 15.7093 85.7172 15.592 86.0372 15.592H92.4372V13.928C91.5626 14.0133 90.6986 14.0773 89.8452 14.12C88.9919 14.1627 88.1919 14.1947 87.4452 14.216C86.5919 14.2373 86.1332 13.864 86.0692 13.096C86.0479 12.7973 86.1439 12.5307 86.3572 12.296C86.5706 12.0613 86.8692 11.944 87.2532 11.944C88.5332 11.9013 89.8879 11.8267 91.3172 11.72C92.7679 11.6133 94.1866 11.4747 95.5732 11.304C96.9599 11.1333 98.1866 10.9307 99.2532 10.696C99.6586 10.6107 99.9999 10.6427 100.277 10.792C100.576 10.92 100.768 11.1547 100.853 11.496C100.939 11.8587 100.896 12.1787 100.725 12.456C100.576 12.712 100.32 12.872 99.9572 12.936C98.5706 13.2347 96.9599 13.48 95.1252 13.672V15.592H101.301C101.621 15.592 101.877 15.7093 102.069 15.944C102.261 16.1573 102.357 16.4133 102.357 16.712C102.357 16.9893 102.261 17.2453 102.069 17.48C101.877 17.6933 101.621 17.8 101.301 17.8H95.1252V19.24H95.7332C97.1412 19.24 98.2186 19.368 98.9652 19.624C99.7119 19.88 100.224 20.3493 100.501 21.032C100.779 21.6933 100.917 22.6747 100.917 23.976C100.917 25.256 100.779 26.2373 100.501 26.92C100.224 27.5813 99.7119 28.04 98.9652 28.296C98.2186 28.552 97.1412 28.68 95.7332 28.68H95.1252V30.28H100.405C100.725 30.28 100.971 30.3973 101.141 30.632C101.333 30.8453 101.429 31.0907 101.429 31.368C101.429 31.6453 101.333 31.9013 101.141 32.136C100.971 32.3493 100.725 32.456 100.405 32.456H95.1252V34.536C96.0852 34.4293 97.0026 34.3227 97.8772 34.216C98.7519 34.1093 99.5092 34.0133 100.149 33.928C100.469 33.8853 100.736 33.96 100.949 34.152C101.184 34.3227 101.312 34.568 101.333 34.888C101.355 34.9733 101.355 35.0587 101.333 35.144C101.333 35.208 101.323 35.272 101.301 35.336C102.688 33.7147 103.701 31.688 104.341 29.256C104.981 26.8027 105.333 23.8693 105.397 20.456H102.517C102.112 20.456 101.781 20.3173 101.525 20.04C101.269 19.7627 101.141 19.432 101.141 19.048C101.141 18.6853 101.269 18.3653 101.525 18.088C101.781 17.8107 102.112 17.672 102.517 17.672H105.429V11.56C105.429 11.1333 105.557 10.8027 105.813 10.568C106.069 10.312 106.389 10.184 106.773 10.184C107.157 10.184 107.477 10.312 107.733 10.568C107.989 10.8027 108.117 11.1333 108.117 11.56V17.672H108.533C109.771 17.672 110.763 17.8107 111.509 18.088C112.256 18.3653 112.8 18.8667 113.141 19.592C113.483 20.296 113.643 21.3307 113.621 22.696C113.6 24.8933 113.536 26.9413 113.429 28.84C113.344 30.7173 113.227 32.3067 113.077 33.608C112.907 35.144 112.587 36.3067 112.117 37.096C111.648 37.9067 110.987 38.4613 110.133 38.76C109.28 39.0587 108.171 39.208 106.805 39.208ZM91.9252 26.568H92.4372V24.904H89.2052C89.2479 25.6507 89.4506 26.12 89.8132 26.312C90.1759 26.4827 90.8799 26.568 91.9252 26.568ZM95.1252 26.568H95.6052C96.6719 26.568 97.3759 26.4827 97.7172 26.312C98.0799 26.12 98.2932 25.6507 98.3572 24.904H95.1252V26.568ZM89.2052 22.952H92.4372V21.32H91.9252C90.8799 21.32 90.1759 21.4053 89.8132 21.576C89.4506 21.7467 89.2479 22.2053 89.2052 22.952ZM95.1252 22.952H98.3572C98.2932 22.2053 98.0799 21.7467 97.7172 21.576C97.3759 21.4053 96.6719 21.32 95.6052 21.32H95.1252V22.952ZM143.893 39.336C143.467 39.336 143.093 39.2293 142.773 39.016C142.475 38.8027 142.304 38.4613 142.261 37.992C142.219 37.5653 142.315 37.2027 142.549 36.904C142.805 36.6053 143.157 36.4453 143.605 36.424C144.693 36.36 145.515 36.2533 146.069 36.104C146.645 35.9333 147.061 35.624 147.317 35.176C147.573 34.728 147.776 34.0773 147.925 33.224C148.075 32.392 148.224 31.3573 148.373 30.12C148.523 28.8827 148.651 27.5813 148.757 26.216C148.885 24.8293 148.971 23.528 149.013 22.312C149.056 21.48 148.949 20.84 148.693 20.392C148.437 19.9227 148.021 19.592 147.445 19.4C146.891 23.7093 145.728 27.3253 143.957 30.248C142.208 33.1707 139.776 35.6133 136.661 37.576C136.299 37.7893 135.904 37.864 135.477 37.8C135.051 37.7573 134.731 37.5653 134.517 37.224C134.325 36.8613 134.272 36.5093 134.357 36.168C134.464 35.8267 134.688 35.5493 135.029 35.336C137.76 33.736 139.957 31.6133 141.621 28.968C143.285 26.3227 144.405 23.0693 144.981 19.208H142.933C142.421 21.8747 141.557 24.2747 140.341 26.408C139.147 28.5413 137.568 30.3867 135.605 31.944C135.307 32.1787 134.955 32.2853 134.549 32.264C134.165 32.2213 133.845 32.0507 133.589 31.752C133.376 31.4533 133.291 31.1333 133.333 30.792C133.397 30.4293 133.568 30.1413 133.845 29.928C135.552 28.712 136.96 27.1547 138.069 25.256C139.2 23.3573 140 21.3413 140.469 19.208H138.645C138.304 19.9333 137.931 20.648 137.525 21.352C137.12 22.0347 136.693 22.6853 136.245 23.304C136.075 23.624 135.797 23.8373 135.413 23.944C135.051 24.0507 134.709 24.0187 134.389 23.848C134.091 23.6773 133.877 23.4213 133.749 23.08C133.643 22.7387 133.696 22.4293 133.909 22.152C134.549 21.2133 135.157 20.1467 135.733 18.952C136.331 17.7573 136.864 16.5093 137.333 15.208C137.803 13.8853 138.165 12.6053 138.421 11.368C138.507 10.9627 138.709 10.6747 139.029 10.504C139.371 10.3333 139.723 10.2907 140.085 10.376C140.469 10.4613 140.747 10.6533 140.917 10.952C141.109 11.2507 141.163 11.5813 141.077 11.944C140.928 12.712 140.736 13.4907 140.501 14.28C140.267 15.0693 140 15.8587 139.701 16.648H146.005C147.413 16.648 148.533 16.8187 149.365 17.16C150.219 17.48 150.837 18.0453 151.221 18.856C151.605 19.6667 151.776 20.7867 151.733 22.216C151.691 23.56 151.616 24.9253 151.509 26.312C151.403 27.6987 151.275 29.0213 151.125 30.28C150.997 31.5387 150.859 32.6587 150.709 33.64C150.496 35.0693 150.144 36.1893 149.653 37C149.163 37.832 148.459 38.4187 147.541 38.76C146.645 39.1227 145.429 39.3147 143.893 39.336ZM130.645 39.656C130.261 39.656 129.931 39.528 129.653 39.272C129.397 39.016 129.269 38.6853 129.269 38.28V29.096C128.459 29.3947 127.691 29.6827 126.965 29.96C126.24 30.216 125.653 30.4293 125.205 30.6C124.779 30.7493 124.373 30.728 123.989 30.536C123.627 30.344 123.381 30.0453 123.253 29.64C123.125 29.2133 123.147 28.8293 123.317 28.488C123.488 28.1253 123.797 27.88 124.245 27.752C124.864 27.5813 125.621 27.3467 126.517 27.048C127.413 26.7493 128.331 26.44 129.269 26.12V19.624H126.773C126.624 20.264 126.464 20.872 126.293 21.448C126.123 22.024 125.952 22.5573 125.781 23.048C125.696 23.4533 125.493 23.752 125.173 23.944C124.853 24.1147 124.501 24.1573 124.117 24.072C123.776 23.9867 123.509 23.8053 123.317 23.528C123.147 23.2293 123.104 22.8987 123.189 22.536C123.637 21.4267 124.021 20.136 124.341 18.664C124.661 17.192 124.875 15.7733 124.981 14.408C125.024 14.024 125.184 13.7253 125.461 13.512C125.739 13.2987 126.048 13.2133 126.389 13.256C126.752 13.2773 127.051 13.416 127.285 13.672C127.52 13.928 127.616 14.2587 127.573 14.664C127.509 15.4533 127.413 16.232 127.285 17H129.269V11.368C129.269 10.9413 129.397 10.6 129.653 10.344C129.931 10.088 130.261 9.96 130.645 9.96C131.051 9.96 131.381 10.088 131.637 10.344C131.915 10.6 132.053 10.9413 132.053 11.368V17H133.973C134.379 17 134.699 17.128 134.933 17.384C135.168 17.64 135.285 17.9493 135.285 18.312C135.285 18.6747 135.168 18.984 134.933 19.24C134.699 19.496 134.379 19.624 133.973 19.624H132.053V25.128C132.416 24.9787 132.757 24.8507 133.077 24.744C133.419 24.616 133.717 24.5093 133.973 24.424C134.336 24.2747 134.667 24.2747 134.965 24.424C135.264 24.552 135.477 24.7867 135.605 25.128C135.733 25.4693 135.744 25.8107 135.637 26.152C135.531 26.472 135.285 26.7173 134.901 26.888C134.56 27.0373 134.144 27.208 133.653 27.4C133.163 27.592 132.629 27.8053 132.053 28.04V38.28C132.053 38.6853 131.915 39.016 131.637 39.272C131.381 39.528 131.051 39.656 130.645 39.656ZM163.349 39.688C162.944 39.7093 162.603 39.624 162.325 39.432C162.048 39.24 161.888 38.9307 161.845 38.504C161.803 38.12 161.909 37.8107 162.165 37.576C162.443 37.3413 162.805 37.2133 163.253 37.192C165.216 37.0853 167.147 36.84 169.045 36.456C170.944 36.072 172.704 35.56 174.325 34.92C173.088 33.96 171.979 32.8507 170.997 31.592C169.269 32.8293 167.445 33.832 165.525 34.6C165.141 34.7493 164.779 34.7707 164.437 34.664C164.096 34.536 163.851 34.2907 163.701 33.928C163.552 33.608 163.552 33.2987 163.701 33C163.851 32.68 164.128 32.4453 164.533 32.296C165.557 31.912 166.581 31.432 167.605 30.856C168.629 30.28 169.6 29.64 170.517 28.936C171.435 28.2107 172.235 27.4747 172.917 26.728C172.107 26.4933 171.552 26.0987 171.253 25.544C170.976 24.9893 170.837 24.2427 170.837 23.304V21.448C170.837 21.0427 170.965 20.7227 171.221 20.488C171.499 20.232 171.819 20.104 172.181 20.104C172.544 20.104 172.853 20.232 173.109 20.488C173.387 20.7227 173.525 21.0427 173.525 21.448V23.112C173.525 23.5813 173.611 23.9333 173.781 24.168C173.952 24.3813 174.272 24.5307 174.741 24.616C175.211 24.68 175.883 24.712 176.757 24.712C177.611 24.712 178.261 24.6693 178.709 24.584C179.157 24.4987 179.477 24.328 179.669 24.072C179.861 23.7947 180 23.4107 180.085 22.92C180.149 22.5573 180.352 22.2907 180.693 22.12C181.056 21.9493 181.397 21.9067 181.717 21.992C182.08 22.0773 182.347 22.248 182.517 22.504C182.709 22.7387 182.773 23.048 182.709 23.432C182.517 24.776 181.973 25.7253 181.077 26.28C180.203 26.8347 178.752 27.112 176.725 27.112H175.669C175.477 27.368 175.275 27.624 175.061 27.88C174.869 28.1147 174.656 28.36 174.421 28.616H179.509C180.747 28.616 181.643 28.872 182.197 29.384C182.752 29.8747 182.976 30.4933 182.869 31.24C182.763 31.9867 182.315 32.712 181.525 33.416C181.205 33.6933 180.875 33.9707 180.533 34.248C180.192 34.504 179.84 34.76 179.477 35.016C180.843 35.5707 182.315 35.9973 183.893 36.296C185.493 36.5733 187.221 36.7547 189.077 36.84C189.611 36.8613 190.005 37 190.261 37.256C190.539 37.5333 190.656 37.8853 190.613 38.312C190.592 38.76 190.411 39.08 190.069 39.272C189.728 39.464 189.333 39.5493 188.885 39.528C186.496 39.3573 184.299 39.0267 182.293 38.536C180.288 38.0453 178.464 37.3627 176.821 36.488C174.88 37.4267 172.747 38.152 170.421 38.664C168.117 39.176 165.76 39.5173 163.349 39.688ZM163.829 23.976C163.445 23.976 163.115 23.848 162.837 23.592C162.56 23.3147 162.421 22.9733 162.421 22.568V21.224C162.421 19.7093 162.784 18.632 163.509 17.992C164.256 17.3307 165.632 17 167.637 17H168.245L167.413 15.528C167.264 15.2293 167.232 14.92 167.317 14.6C167.424 14.28 167.616 14.0453 167.893 13.896C167.509 13.9173 167.115 13.928 166.709 13.928C166.325 13.928 165.952 13.928 165.589 13.928C164.693 13.9493 164.213 13.5547 164.149 12.744C164.128 12.4027 164.245 12.104 164.501 11.848C164.757 11.592 165.099 11.4747 165.525 11.496C167.083 11.5173 168.725 11.496 170.453 11.432C172.203 11.3467 173.941 11.24 175.669 11.112C177.419 10.9627 179.083 10.792 180.661 10.6C182.24 10.3867 183.648 10.152 184.885 9.896C185.909 9.68266 186.507 9.97066 186.677 10.76C186.784 11.1653 186.741 11.5067 186.549 11.784C186.379 12.04 186.091 12.2 185.685 12.264C182.912 12.7547 179.797 13.1493 176.341 13.448C176.619 13.576 176.8 13.8 176.885 14.12C176.992 14.4187 177.109 14.792 177.237 15.24C177.365 15.6667 177.472 16.008 177.557 16.264C177.621 16.52 177.621 16.7653 177.557 17H181.141C181.312 16.7013 181.515 16.328 181.749 15.88C181.984 15.432 182.208 14.9947 182.421 14.568C182.635 14.12 182.795 13.7893 182.901 13.576C183.093 13.2133 183.371 12.9893 183.733 12.904C184.096 12.8187 184.448 12.8613 184.789 13.032C185.131 13.2027 185.355 13.4587 185.461 13.8C185.568 14.12 185.536 14.4507 185.365 14.792C185.216 15.0693 185.024 15.4107 184.789 15.816C184.555 16.2213 184.32 16.616 184.085 17H184.789C186.133 17 187.179 17.128 187.925 17.384C188.672 17.64 189.195 18.0667 189.493 18.664C189.813 19.2613 189.973 20.072 189.973 21.096V22.568C189.973 22.9733 189.835 23.3147 189.557 23.592C189.301 23.848 188.981 23.976 188.597 23.976C188.192 23.976 187.851 23.848 187.573 23.592C187.317 23.3147 187.189 22.9733 187.189 22.568V21.16C187.189 20.4773 187.019 19.9973 186.677 19.72C186.336 19.4427 185.685 19.304 184.725 19.304H176.469C176.597 19.3893 176.683 19.464 176.725 19.528C177.024 19.8053 177.365 20.168 177.749 20.616C178.133 21.064 178.453 21.4373 178.709 21.736C178.944 22.0133 179.029 22.3227 178.965 22.664C178.901 22.984 178.72 23.2507 178.421 23.464C178.144 23.6773 177.835 23.7733 177.493 23.752C177.152 23.7093 176.864 23.5493 176.629 23.272C176.501 23.1227 176.309 22.9093 176.053 22.632C175.819 22.3333 175.563 22.0347 175.285 21.736C175.029 21.416 174.816 21.16 174.645 20.968C174.432 20.712 174.347 20.424 174.389 20.104C174.453 19.7627 174.624 19.496 174.901 19.304H167.701C166.741 19.304 166.091 19.4427 165.749 19.72C165.408 19.9973 165.237 20.4773 165.237 21.16V22.568C165.237 22.9733 165.099 23.3147 164.821 23.592C164.544 23.848 164.213 23.976 163.829 23.976ZM164.629 27.08C164.352 26.8453 164.213 26.5573 164.213 26.216C164.235 25.8747 164.352 25.5653 164.565 25.288C165.013 24.7547 165.493 24.104 166.005 23.336C166.539 22.568 166.944 21.9173 167.221 21.384C167.392 21.064 167.669 20.8613 168.053 20.776C168.437 20.6693 168.789 20.7227 169.109 20.936C169.451 21.1493 169.653 21.4267 169.717 21.768C169.781 22.088 169.728 22.408 169.557 22.728C169.173 23.3893 168.725 24.104 168.213 24.872C167.701 25.6187 167.211 26.28 166.741 26.856C166.485 27.176 166.155 27.368 165.749 27.432C165.344 27.4747 164.971 27.3573 164.629 27.08ZM188.085 26.6C187.787 26.8133 187.445 26.9093 187.061 26.888C186.677 26.8453 186.368 26.6747 186.133 26.376C185.877 26.0347 185.568 25.64 185.205 25.192C184.843 24.7227 184.469 24.264 184.085 23.816C183.701 23.368 183.36 22.9733 183.061 22.632C182.848 22.376 182.752 22.0773 182.773 21.736C182.795 21.3947 182.933 21.1173 183.189 20.904C183.445 20.6693 183.755 20.5627 184.117 20.584C184.48 20.584 184.779 20.712 185.013 20.968C185.525 21.5013 186.101 22.1307 186.741 22.856C187.381 23.5813 187.893 24.2 188.277 24.712C188.512 25.0107 188.608 25.3413 188.565 25.704C188.544 26.0667 188.384 26.3653 188.085 26.6ZM170.997 17H175.061C174.976 16.68 174.869 16.3173 174.741 15.912C174.613 15.5067 174.507 15.1653 174.421 14.888C174.251 14.2907 174.379 13.8427 174.805 13.544C173.888 13.6293 172.96 13.6933 172.021 13.736C171.104 13.7787 170.187 13.8213 169.269 13.864C169.461 13.9493 169.621 14.1093 169.749 14.344C169.92 14.6213 170.112 14.952 170.325 15.336C170.56 15.72 170.741 16.0293 170.869 16.264C170.997 16.4987 171.04 16.744 170.997 17ZM176.917 33.672C177.344 33.4373 177.749 33.192 178.133 32.936C178.517 32.68 178.869 32.4133 179.189 32.136C179.659 31.7307 179.84 31.4 179.733 31.144C179.627 30.888 179.264 30.76 178.645 30.76H173.493C174.005 31.336 174.549 31.8693 175.125 32.36C175.701 32.8293 176.299 33.2667 176.917 33.672ZM217.013 28.2C215.733 28.2 214.763 28.0827 214.101 27.848C213.44 27.6133 212.992 27.2293 212.757 26.696C212.523 26.1627 212.405 25.4587 212.405 24.584V21.992C212.235 22.2053 212.064 22.4187 211.893 22.632C211.723 22.824 211.552 23.0053 211.381 23.176C211.125 23.432 210.816 23.5813 210.453 23.624C210.112 23.6453 209.803 23.5387 209.525 23.304C209.397 23.2187 209.291 23.08 209.205 22.888C208.992 23.0587 208.757 23.144 208.501 23.144H201.589C201.269 23.144 200.992 23.0267 200.757 22.792C200.544 22.536 200.437 22.248 200.437 21.928C200.437 21.608 200.544 21.3307 200.757 21.096C200.992 20.8613 201.269 20.744 201.589 20.744H208.501C209.013 20.744 209.365 21 209.557 21.512C210.091 20.9573 210.613 20.328 211.125 19.624C211.637 18.92 212.117 18.2053 212.565 17.48C213.035 16.7333 213.419 16.0613 213.717 15.464C213.845 15.1867 214.027 14.9947 214.261 14.888C214.517 14.76 214.784 14.7173 215.061 14.76V14.248H211.413C211.136 14.248 210.891 14.1413 210.677 13.928C210.464 13.7147 210.357 13.4693 210.357 13.192C210.357 12.8933 210.464 12.648 210.677 12.456C210.891 12.2427 211.136 12.136 211.413 12.136H215.061V11.208C215.061 10.824 215.189 10.5147 215.445 10.28C215.701 10.0453 216 9.928 216.341 9.928C216.704 9.928 217.003 10.0453 217.237 10.28C217.493 10.5147 217.621 10.824 217.621 11.208V12.136H221.461V11.208C221.461 10.824 221.589 10.5147 221.845 10.28C222.101 10.0453 222.4 9.928 222.741 9.928C223.104 9.928 223.403 10.0453 223.637 10.28C223.893 10.5147 224.021 10.824 224.021 11.208V12.136H227.861C228.16 12.136 228.405 12.2427 228.597 12.456C228.811 12.648 228.917 12.8933 228.917 13.192C228.917 13.4693 228.811 13.7147 228.597 13.928C228.405 14.1413 228.16 14.248 227.861 14.248H224.021V14.952C224.021 15.336 223.893 15.6453 223.637 15.88C223.403 16.1147 223.104 16.232 222.741 16.232C222.571 16.232 222.453 16.2213 222.389 16.2L222.293 16.488C222.229 16.5947 222.155 16.744 222.069 16.936C221.984 17.1067 221.888 17.288 221.781 17.48H227.669C227.904 17.48 228.107 17.576 228.277 17.768C228.469 17.9387 228.565 18.152 228.565 18.408C228.565 18.6427 228.469 18.856 228.277 19.048C228.107 19.2187 227.904 19.304 227.669 19.304H221.749V20.488H226.709C226.944 20.488 227.147 20.5733 227.317 20.744C227.488 20.9147 227.573 21.1173 227.573 21.352C227.573 21.5653 227.488 21.7573 227.317 21.928C227.147 22.0987 226.944 22.184 226.709 22.184H221.749V23.336H226.709C226.944 23.336 227.147 23.4213 227.317 23.592C227.488 23.7413 227.573 23.9333 227.573 24.168C227.573 24.4027 227.488 24.6053 227.317 24.776C227.147 24.9467 226.944 25.032 226.709 25.032H221.749V26.344H227.861C228.117 26.344 228.331 26.44 228.501 26.632C228.693 26.8027 228.789 27.016 228.789 27.272C228.789 27.528 228.693 27.752 228.501 27.944C228.331 28.1147 228.117 28.2 227.861 28.2H217.013ZM212.117 39.72C211.712 39.8053 211.36 39.7627 211.061 39.592C210.763 39.4427 210.56 39.1867 210.453 38.824C210.368 38.4613 210.432 38.1307 210.645 37.832C210.859 37.5333 211.168 37.352 211.573 37.288C212.789 37.096 213.941 36.84 215.029 36.52C216.117 36.1787 217.12 35.7947 218.037 35.368C216.715 34.2373 215.563 32.904 214.581 31.368H212.117C211.84 31.368 211.595 31.2613 211.381 31.048C211.168 30.8347 211.061 30.5893 211.061 30.312C211.061 30.0133 211.168 29.768 211.381 29.576C211.595 29.3627 211.84 29.256 212.117 29.256H222.805C223.829 29.256 224.597 29.48 225.109 29.928C225.643 30.376 225.899 30.9307 225.877 31.592C225.856 32.2533 225.504 32.9147 224.821 33.576C224.48 33.9173 224.117 34.248 223.733 34.568C223.371 34.888 222.987 35.1973 222.581 35.496C224.203 36.2853 226.101 36.8613 228.277 37.224C228.683 37.288 228.992 37.4587 229.205 37.736C229.419 38.0347 229.493 38.3653 229.429 38.728C229.344 39.0693 229.152 39.3253 228.853 39.496C228.555 39.688 228.16 39.7413 227.669 39.656C224.939 39.2293 222.464 38.3333 220.245 36.968C219.115 37.5867 217.867 38.1307 216.501 38.6C215.157 39.0693 213.696 39.4427 212.117 39.72ZM205.109 38.856C203.915 38.856 202.987 38.7067 202.325 38.408C201.664 38.1307 201.195 37.6507 200.917 36.968C200.661 36.2853 200.533 35.3573 200.533 34.184C200.533 33.0107 200.661 32.0827 200.917 31.4C201.195 30.7173 201.664 30.2373 202.325 29.96C202.987 29.6613 203.915 29.512 205.109 29.512C206.304 29.512 207.221 29.6613 207.861 29.96C208.523 30.2373 208.981 30.7173 209.237 31.4C209.515 32.0827 209.653 33.0107 209.653 34.184C209.653 35.3573 209.515 36.2853 209.237 36.968C208.981 37.6507 208.523 38.1307 207.861 38.408C207.221 38.7067 206.304 38.856 205.109 38.856ZM200.245 18.76C199.925 18.76 199.648 18.6427 199.413 18.408C199.2 18.152 199.093 17.864 199.093 17.544C199.093 17.224 199.2 16.9467 199.413 16.712C199.648 16.4773 199.925 16.36 200.245 16.36H209.749C210.069 16.36 210.336 16.4773 210.549 16.712C210.784 16.9467 210.901 17.224 210.901 17.544C210.901 17.864 210.784 18.152 210.549 18.408C210.336 18.6427 210.069 18.76 209.749 18.76H200.245ZM201.621 14.376C201.301 14.376 201.024 14.2587 200.789 14.024C200.576 13.768 200.469 13.48 200.469 13.16C200.469 12.84 200.576 12.5627 200.789 12.328C201.024 12.072 201.301 11.944 201.621 11.944H208.469C208.789 11.944 209.067 12.072 209.301 12.328C209.536 12.5627 209.653 12.84 209.653 13.16C209.653 13.48 209.536 13.768 209.301 14.024C209.067 14.2587 208.789 14.376 208.469 14.376H201.621ZM201.589 27.528C201.269 27.528 200.992 27.4107 200.757 27.176C200.544 26.92 200.437 26.632 200.437 26.312C200.437 25.992 200.544 25.7147 200.757 25.48C200.992 25.2453 201.269 25.128 201.589 25.128H208.501C208.821 25.128 209.088 25.2453 209.301 25.48C209.536 25.7147 209.653 25.992 209.653 26.312C209.653 26.632 209.536 26.92 209.301 27.176C209.088 27.4107 208.821 27.528 208.501 27.528H201.589ZM205.109 36.52C205.92 36.52 206.443 36.3707 206.677 36.072C206.933 35.7733 207.061 35.144 207.061 34.184C207.061 33.2453 206.933 32.616 206.677 32.296C206.443 31.976 205.92 31.816 205.109 31.816C204.299 31.816 203.765 31.976 203.509 32.296C203.253 32.616 203.125 33.2453 203.125 34.184C203.125 35.144 203.253 35.7733 203.509 36.072C203.765 36.3707 204.299 36.52 205.109 36.52ZM215.477 17.48H219.093C219.221 17.16 219.36 16.808 219.509 16.424C219.68 16.0187 219.808 15.7413 219.893 15.592C220.021 15.272 220.235 15.048 220.533 14.92C220.853 14.7707 221.163 14.7387 221.461 14.824V14.248H217.621V14.952C217.621 15.336 217.493 15.6453 217.237 15.88C217.003 16.1147 216.704 16.232 216.341 16.232C216.235 16.232 216.16 16.2213 216.117 16.2C216.096 16.328 216.053 16.4453 215.989 16.552C215.904 16.7013 215.819 16.8507 215.733 17C215.669 17.1493 215.584 17.3093 215.477 17.48ZM220.277 34.12C220.661 33.8853 221.024 33.6507 221.365 33.416C221.707 33.16 222.016 32.904 222.293 32.648C222.72 32.2853 222.891 31.9867 222.805 31.752C222.72 31.496 222.379 31.368 221.781 31.368H217.365C217.792 31.9013 218.251 32.4027 218.741 32.872C219.232 33.32 219.744 33.736 220.277 34.12ZM217.013 26.344H219.157V25.032H214.997C215.04 25.5653 215.211 25.9173 215.509 26.088C215.808 26.2587 216.309 26.344 217.013 26.344ZM214.965 20.488H219.157V19.304H214.965V20.488ZM214.965 23.336H219.157V22.184H214.965V23.336ZM248.405 38.632C246.677 38.632 245.216 38.5147 244.021 38.28C242.827 38.0453 241.856 37.6187 241.109 37C240.363 36.4027 239.819 35.56 239.477 34.472C239.157 33.3627 238.997 31.944 238.997 30.216V19.464C238.997 17.736 239.157 16.328 239.477 15.24C239.819 14.1307 240.363 13.2773 241.109 12.68C241.856 12.0613 242.827 11.6347 244.021 11.4C245.216 11.1653 246.677 11.048 248.405 11.048H256.277C258.005 11.048 259.467 11.1653 260.661 11.4C261.856 11.6347 262.827 12.0613 263.573 12.68C264.32 13.2773 264.853 14.1307 265.173 15.24C265.515 16.328 265.685 17.736 265.685 19.464V30.216C265.685 31.944 265.515 33.3627 265.173 34.472C264.853 35.56 264.32 36.4027 263.573 37C262.827 37.6187 261.856 38.0453 260.661 38.28C259.467 38.5147 258.005 38.632 256.277 38.632H248.405ZM248.405 36.04H256.277C257.899 36.04 259.179 35.8907 260.117 35.592C261.056 35.2933 261.728 34.728 262.133 33.896C262.56 33.0427 262.773 31.816 262.773 30.216V19.464C262.773 17.8427 262.56 16.616 262.133 15.784C261.728 14.952 261.056 14.3867 260.117 14.088C259.179 13.7893 257.899 13.64 256.277 13.64H248.405C246.805 13.64 245.525 13.7893 244.565 14.088C243.627 14.3867 242.944 14.952 242.517 15.784C242.112 16.616 241.909 17.8427 241.909 19.464V30.216C241.909 31.816 242.112 33.0427 242.517 33.896C242.944 34.728 243.627 35.2933 244.565 35.592C245.525 35.8907 246.805 36.04 248.405 36.04ZM252.309 34.376C251.904 34.376 251.552 34.2587 251.253 34.024C250.976 33.768 250.816 33.4267 250.773 33C250.752 32.616 250.859 32.2747 251.093 31.976C251.328 31.6773 251.616 31.5173 251.957 31.496C252.917 31.4533 253.579 31.336 253.941 31.144C254.304 30.952 254.485 30.4613 254.485 29.672V21.96H244.277C243.893 21.96 243.584 21.832 243.349 21.576C243.136 21.32 243.029 21.0213 243.029 20.68C243.029 20.3387 243.136 20.0507 243.349 19.816C243.584 19.56 243.893 19.432 244.277 19.432H254.485V16.328C254.485 15.9013 254.613 15.56 254.869 15.304C255.147 15.048 255.488 14.92 255.893 14.92C256.277 14.92 256.597 15.048 256.853 15.304C257.131 15.56 257.269 15.9013 257.269 16.328V19.432H260.341C260.725 19.432 261.024 19.56 261.237 19.816C261.472 20.0507 261.589 20.3387 261.589 20.68C261.589 21.0213 261.472 21.32 261.237 21.576C261.024 21.832 260.725 21.96 260.341 21.96H257.269V30.216C257.269 31.304 257.099 32.1573 256.757 32.776C256.437 33.3733 255.915 33.7893 255.189 34.024C254.464 34.2587 253.504 34.376 252.309 34.376ZM250.517 29.832C250.219 30.0453 249.877 30.12 249.493 30.056C249.131 29.9707 248.853 29.7787 248.661 29.48C248.448 29.1387 248.149 28.7227 247.765 28.232C247.403 27.72 247.019 27.208 246.613 26.696C246.229 26.184 245.899 25.7573 245.621 25.416C245.408 25.16 245.333 24.8613 245.397 24.52C245.483 24.1573 245.664 23.88 245.941 23.688C246.24 23.4747 246.571 23.3893 246.933 23.432C247.317 23.4747 247.627 23.6347 247.861 23.912C248.117 24.2107 248.448 24.616 248.853 25.128C249.259 25.64 249.653 26.152 250.037 26.664C250.421 27.1547 250.72 27.56 250.933 27.88C251.168 28.2 251.232 28.552 251.125 28.936C251.04 29.32 250.837 29.6187 250.517 29.832ZM294.261 39.784C293.856 39.784 293.515 39.6453 293.237 39.368C292.96 39.112 292.821 38.7707 292.821 38.344V34.088H289.653C289.248 34.088 288.907 33.9493 288.629 33.672C288.352 33.3947 288.213 33.0533 288.213 32.648C288.213 32.2427 288.352 31.9013 288.629 31.624C288.907 31.3467 289.248 31.208 289.653 31.208H292.821V23.656C292.181 24.7867 291.456 25.928 290.645 27.08C289.835 28.232 289.003 29.32 288.149 30.344C287.317 31.3467 286.517 32.232 285.749 33C285.451 33.2987 285.088 33.4693 284.661 33.512C284.256 33.5333 283.893 33.3947 283.573 33.096C283.296 32.8187 283.147 32.488 283.125 32.104C283.125 31.72 283.264 31.3893 283.541 31.112C284.267 30.4293 285.035 29.6187 285.845 28.68C286.656 27.72 287.456 26.7067 288.245 25.64C289.035 24.5733 289.76 23.528 290.421 22.504C291.104 21.4587 291.659 20.4987 292.085 19.624H285.717C285.355 19.624 285.035 19.496 284.757 19.24C284.501 18.9627 284.373 18.6427 284.373 18.28C284.373 17.896 284.501 17.576 284.757 17.32C285.035 17.0427 285.355 16.904 285.717 16.904H292.821V11.528C292.821 11.1013 292.96 10.76 293.237 10.504C293.515 10.248 293.856 10.12 294.261 10.12C294.667 10.12 295.008 10.248 295.285 10.504C295.563 10.76 295.701 11.1013 295.701 11.528V16.904H303.125C303.488 16.904 303.808 17.0427 304.085 17.32C304.363 17.576 304.501 17.896 304.501 18.28C304.501 18.6427 304.363 18.9627 304.085 19.24C303.808 19.496 303.488 19.624 303.125 19.624H296.469C296.896 20.52 297.44 21.48 298.101 22.504C298.784 23.528 299.52 24.552 300.309 25.576C301.12 26.6 301.931 27.5813 302.741 28.52C303.552 29.4373 304.32 30.248 305.045 30.952C305.344 31.2293 305.493 31.56 305.493 31.944C305.515 32.328 305.365 32.68 305.045 33C304.725 33.32 304.341 33.48 303.893 33.48C303.467 33.4587 303.104 33.2987 302.805 33C302.016 32.168 301.195 31.24 300.341 30.216C299.488 29.192 298.656 28.1147 297.845 26.984C297.056 25.832 296.341 24.7013 295.701 23.592V31.208H298.901C299.307 31.208 299.648 31.3467 299.925 31.624C300.203 31.9013 300.341 32.2427 300.341 32.648C300.341 33.0533 300.203 33.3947 299.925 33.672C299.648 33.9493 299.307 34.088 298.901 34.088H295.701V38.344C295.701 38.7707 295.563 39.112 295.285 39.368C295.008 39.6453 294.667 39.784 294.261 39.784ZM281.589 39.72C281.184 39.72 280.843 39.5813 280.565 39.304C280.288 39.0267 280.149 38.6853 280.149 38.28V21.928C279.744 22.5253 279.339 23.112 278.933 23.688C278.528 24.264 278.112 24.808 277.685 25.32C277.451 25.6187 277.131 25.8 276.725 25.864C276.32 25.9067 275.957 25.8 275.637 25.544C275.36 25.3093 275.189 25.0107 275.125 24.648C275.083 24.264 275.179 23.9333 275.413 23.656C276.096 22.8453 276.779 21.9173 277.461 20.872C278.165 19.8267 278.837 18.7387 279.477 17.608C280.117 16.4773 280.693 15.368 281.205 14.28C281.739 13.192 282.165 12.2 282.485 11.304C282.656 10.8773 282.912 10.5893 283.253 10.44C283.616 10.2693 284 10.2587 284.405 10.408C284.768 10.536 285.035 10.7707 285.205 11.112C285.376 11.432 285.376 11.7947 285.205 12.2C284.928 12.968 284.597 13.768 284.213 14.6C283.829 15.4107 283.424 16.232 282.997 17.064V38.28C282.997 38.6853 282.859 39.0267 282.581 39.304C282.304 39.5813 281.973 39.72 281.589 39.72Z" fill="#FFFFFB"/>
</svg>
