<?xml version="1.0" standalone="no"?>
<!DOCTYPE svg PUBLIC "-//W3C//DTD SVG 20010904//EN"
 "http://www.w3.org/TR/2001/REC-SVG-20010904/DTD/svg10.dtd">
<svg version="1.0" xmlns="http://www.w3.org/2000/svg"
 width="519.000000pt" height="67.000000pt" viewBox="0 0 519.000000 67.000000"
 preserveAspectRatio="xMidYMid meet">

<g transform="translate(0.000000,67.000000) scale(0.100000,-0.100000)"
fill="#000000" stroke="none">
<path d="M1167 652 c-20 -22 -22 -53 -5 -70 28 -28 98 -4 98 34 0 20 -37 54
-58 54 -11 0 -26 -8 -35 -18z"/>
<path d="M4139 649 c-14 -14 -18 -27 -13 -42 9 -29 23 -38 59 -35 40 4 58 48
30 78 -23 26 -49 26 -76 -1z"/>
<path d="M4509 651 c-20 -16 -22 -23 -14 -47 8 -22 18 -30 41 -32 57 -6 86 52
42 82 -29 21 -41 20 -69 -3z"/>
<path d="M240 571 l0 -88 -39 19 c-33 16 -46 18 -78 9 -125 -34 -165 -223 -69
-329 29 -31 39 -36 84 -36 37 -1 58 5 80 21 29 21 30 22 35 3 4 -15 14 -20 41
-20 l36 0 0 255 0 255 -45 0 -45 0 0 -89z m-25 -143 c24 -11 25 -15 25 -94 0
-74 -2 -84 -22 -98 -72 -51 -136 18 -117 127 12 68 54 93 114 65z"/>
<path d="M697 509 c-21 -5 -51 -16 -67 -24 -29 -15 -29 -15 -13 -44 16 -27 18
-28 50 -15 40 17 95 18 111 2 21 -21 14 -47 -15 -53 -127 -27 -173 -58 -173
-119 0 -48 18 -85 51 -102 38 -19 68 -18 114 6 47 24 55 25 55 5 0 -11 11 -15
41 -15 l41 0 -4 133 c-4 142 -14 177 -58 208 -32 23 -85 30 -133 18z m93 -229
c0 -34 -4 -42 -31 -56 -25 -12 -37 -14 -56 -5 -37 17 -28 61 17 83 56 29 70
24 70 -22z"/>
<path d="M1600 510 c-19 -5 -47 -22 -62 -39 -55 -62 -27 -124 79 -172 44 -20
63 -34 63 -47 0 -44 -61 -56 -116 -23 l-32 19 -21 -29 -22 -29 33 -20 c69 -42
178 -34 217 16 29 37 34 60 21 100 -11 32 -22 41 -86 70 -75 35 -90 54 -62 82
16 16 43 15 79 -4 28 -14 31 -14 49 8 25 30 25 31 -7 50 -37 21 -90 28 -133
18z"/>
<path d="M3155 505 c-52 -18 -75 -48 -75 -94 0 -50 15 -67 95 -110 75 -39 84
-51 60 -75 -21 -21 -58 -20 -102 1 -35 16 -36 16 -54 -6 -25 -31 -24 -35 16
-54 58 -27 110 -32 159 -13 52 20 76 52 76 100 0 46 -25 73 -101 110 -71 34
-85 59 -45 77 21 10 34 9 66 -4 40 -15 40 -15 59 12 l20 28 -33 16 c-52 24
-97 28 -141 12z"/>
<path d="M3695 513 c-52 -12 -115 -35 -115 -43 0 -14 23 -60 29 -60 3 1 17 7
31 15 40 23 96 19 114 -7 9 -12 16 -26 16 -30 0 -4 -27 -12 -61 -19 -103 -20
-158 -74 -145 -143 14 -75 90 -103 169 -63 44 23 47 23 47 6 0 -15 8 -19 40
-19 l40 0 0 125 c0 177 -21 222 -115 238 -16 3 -39 3 -50 0z m73 -230 c-4 -49
-45 -81 -85 -67 -22 7 -28 16 -28 39 0 24 7 33 35 47 19 10 45 18 58 18 21 0
23 -4 20 -37z"/>
<path d="M4967 508 c-114 -30 -161 -194 -86 -300 30 -41 102 -72 152 -64 94
15 150 85 150 186 0 61 -17 102 -60 142 -23 21 -93 51 -113 47 -3 -1 -22 -6
-43 -11z m94 -87 c21 -17 24 -28 24 -89 0 -83 -18 -112 -71 -112 -53 0 -77 39
-72 117 4 71 26 103 68 103 15 0 38 -9 51 -19z"/>
<path d="M1160 330 l0 -180 45 0 45 0 0 180 0 180 -45 0 -45 0 0 -180z"/>
<path d="M2041 338 c72 -179 76 -202 42 -240 -9 -10 -28 -18 -43 -18 -27 0
-39 -19 -40 -57 0 -21 81 -16 117 7 42 25 59 60 131 270 33 96 63 183 67 193
6 15 1 17 -38 17 l-46 0 -15 -52 c-8 -29 -25 -89 -37 -133 -12 -44 -22 -81
-24 -83 -1 -1 -21 59 -45 133 l-44 135 -47 0 -47 0 69 -172z"/>
<path d="M4130 330 l0 -180 45 0 45 0 0 180 0 180 -45 0 -45 0 0 -180z"/>
<path d="M4500 314 c0 -115 -4 -203 -10 -215 -6 -10 -21 -19 -34 -19 -24 0
-36 -17 -36 -51 0 -29 101 -28 130 1 36 36 40 66 40 276 l0 204 -45 0 -45 0 0
-196z"/>
<path d="M2510 75 l0 -25 170 0 170 0 0 25 0 25 -170 0 -170 0 0 -25z"/>
</g>
</svg>
