<?xml version="1.0" standalone="no"?>
<!DOCTYPE svg PUBLIC "-//W3C//DTD SVG 20010904//EN"
 "http://www.w3.org/TR/2001/REC-SVG-20010904/DTD/svg10.dtd">
<svg version="1.0" xmlns="http://www.w3.org/2000/svg"
 width="525.000000pt" height="159.000000pt" viewBox="0 0 525.000000 159.000000"
 preserveAspectRatio="xMidYMid meet">

<g transform="translate(0.000000,159.000000) scale(0.100000,-0.100000)"
fill="#000000" stroke="none">
<path d="M1056 1474 c-3 -9 -6 -27 -6 -40 0 -15 -6 -24 -15 -24 -8 0 -15 5
-15 10 0 6 -16 10 -36 10 -38 0 -44 22 -8 28 10 2 24 9 29 14 7 7 -5 9 -39 4
-27 -3 -62 -6 -77 -6 -16 0 -29 -4 -29 -10 0 -5 14 -10 30 -10 17 0 30 -4 30
-10 0 -5 -16 -10 -36 -10 -21 0 -33 -4 -29 -10 3 -5 21 -10 38 -10 l32 -1 -28
-15 c-23 -13 -28 -21 -25 -47 2 -24 8 -33 26 -35 33 -5 27 -22 -8 -22 -16 0
-30 -4 -30 -10 0 -5 14 -10 30 -10 42 0 40 -28 -2 -32 -18 -2 -32 -7 -30 -13
3 -10 46 -10 109 1 27 4 32 2 26 -12 -4 -12 -1 -15 13 -12 26 5 64 77 71 138
7 62 27 62 31 -1 5 -71 -5 -106 -34 -113 -28 -7 -24 -26 6 -26 40 0 51 27 48
119 -3 81 -4 86 -25 89 -19 3 -23 10 -23 37 0 37 -14 54 -24 29z m-46 -74 c0
-5 9 -10 20 -10 17 0 20 -7 20 -42 -1 -24 -6 -56 -13 -72 -10 -23 -19 -29 -50
-31 -25 -1 -37 2 -37 12 0 8 12 13 30 13 17 0 30 5 30 10 0 6 -14 10 -31 10
-17 0 -28 4 -24 10 3 6 15 10 25 10 42 0 36 72 -8 89 l-27 9 33 1 c17 1 32 -3
32 -9z m-90 -30 c0 -5 -7 -10 -16 -10 -8 0 -12 5 -9 10 3 6 10 10 16 10 5 0 9
-4 9 -10z m60 0 c0 -5 -7 -10 -15 -10 -8 0 -15 5 -15 10 0 6 7 10 15 10 8 0
15 -4 15 -10z m-60 -40 c0 -5 -4 -10 -9 -10 -6 0 -13 5 -16 10 -3 6 1 10 9 10
9 0 16 -4 16 -10z m55 0 c-3 -5 -10 -10 -16 -10 -5 0 -9 5 -9 10 0 6 7 10 16
10 8 0 12 -4 9 -10z"/>
<path d="M1297 1483 c-4 -3 -7 -19 -7 -35 0 -15 -4 -28 -10 -28 -5 0 -10 9
-10 21 0 32 -17 13 -24 -27 -4 -19 -10 -42 -13 -50 -3 -8 0 -14 6 -14 6 0 16
11 21 25 14 38 30 30 30 -14 0 -36 -3 -40 -30 -46 -16 -4 -30 -11 -30 -17 0
-6 13 -8 30 -6 30 5 30 4 30 -44 0 -36 4 -48 15 -48 11 0 15 13 15 54 0 44 4
56 23 69 l22 16 -22 0 c-19 1 -23 7 -23 31 0 20 5 30 15 30 8 0 15 5 15 10 0
6 -7 10 -15 10 -10 0 -15 11 -15 35 0 33 -8 43 -23 28z"/>
<path d="M1735 1476 c-89 -10 -98 -13 -77 -24 28 -16 28 -28 -2 -36 -32 -8
-46 -66 -16 -66 5 0 10 10 12 23 3 19 10 22 51 25 35 2 47 0 47 -11 0 -19 26
-41 34 -28 4 5 2 12 -4 16 -24 15 -7 26 37 23 38 -2 49 -7 52 -23 3 -17 1 -18
-13 -6 -27 22 -31 3 -6 -24 l23 -25 15 31 c17 35 8 60 -24 69 -18 5 -30 50
-12 50 4 0 8 5 8 10 0 6 -6 9 -12 9 -7 -1 -58 -7 -113 -13z m15 -49 c0 -13
-43 -4 -47 10 -2 6 4 13 14 15 17 4 33 -8 33 -25z m70 13 c-6 -11 -20 -20 -30
-20 -13 0 -20 7 -20 20 0 16 7 20 30 20 28 0 30 -2 20 -20z"/>
<path d="M2150 1480 c0 -5 -9 -10 -20 -10 -11 0 -20 -4 -20 -10 0 -5 9 -10 20
-10 20 0 20 -1 -2 -35 -21 -32 -27 -35 -70 -35 -27 0 -48 -4 -48 -10 0 -5 24
-10 53 -10 48 0 55 -3 65 -25 11 -24 15 -25 89 -23 43 1 61 3 41 5 -44 5 -50
20 -10 26 l27 4 -27 2 c-16 0 -28 5 -28 10 0 5 12 12 28 14 l27 4 -27 2 c-39
2 -35 19 5 24 l32 4 -32 1 c-18 1 -33 5 -33 8 0 13 30 34 50 34 12 0 18 5 15
10 -3 6 -15 10 -25 10 -10 0 -21 6 -24 13 -5 10 -7 10 -12 0 -7 -15 -54 -17
-54 -3 0 6 -4 10 -10 10 -5 0 -10 -4 -10 -10z m48 -50 c-13 -20 -38 -28 -38
-12 0 12 23 32 37 32 11 0 11 -4 1 -20z m-8 -40 c0 -5 -9 -10 -20 -10 -11 0
-20 5 -20 10 0 6 9 10 20 10 11 0 20 -4 20 -10z m0 -30 c0 -5 -9 -10 -20 -10
-11 0 -20 5 -20 10 0 6 9 10 20 10 11 0 20 -4 20 -10z m0 -30 c0 -13 -11 -13
-30 0 -12 8 -11 10 8 10 12 0 22 -4 22 -10z"/>
<path d="M2930 1456 c0 -35 -1 -36 -39 -36 -22 0 -43 -4 -46 -10 -4 -6 10 -10
34 -10 23 0 41 -4 41 -9 0 -5 -19 -33 -42 -63 l-43 -53 -3 72 c-2 40 2 81 8
92 14 27 13 41 -5 41 -8 0 -15 -6 -15 -13 0 -7 -15 -37 -34 -67 -35 -56 -38
-84 -5 -54 18 16 18 14 21 -65 3 -81 20 -116 26 -53 2 19 9 32 17 32 8 0 26
17 41 38 43 58 44 58 44 20 0 -29 -4 -37 -20 -40 -26 -4 -27 -22 -1 -26 13 -2
21 -12 23 -30 4 -35 22 -35 26 1 2 19 9 27 23 27 25 0 25 20 -1 27 -15 4 -20
14 -20 36 l0 31 30 -34 c16 -19 29 -38 30 -42 0 -5 7 -8 15 -8 23 0 19 10 -25
65 -49 62 -50 75 -5 75 19 0 35 5 35 10 0 6 -18 10 -39 10 -37 0 -40 2 -43 32
-4 46 -28 49 -28 4z"/>
<path d="M1380 1465 c0 -9 -9 -33 -20 -55 -11 -22 -20 -44 -20 -50 0 -19 20
-10 32 15 6 14 15 25 21 25 15 0 -2 -52 -30 -88 -14 -18 -22 -36 -18 -40 10
-10 63 56 76 95 10 32 29 45 29 21 0 -30 -51 -118 -79 -139 -22 -16 -28 -26
-20 -33 17 -18 96 74 111 128 15 56 28 60 28 9 0 -81 -11 -115 -42 -127 -31
-13 -27 -26 7 -26 34 0 47 23 55 102 11 102 3 118 -61 118 l-51 0 7 30 c5 23
3 30 -9 30 -9 0 -16 -7 -16 -15z"/>
<path d="M2416 1459 c-25 -19 -26 -25 -26 -113 0 -132 4 -136 134 -136 66 0
106 4 114 12 8 8 12 49 12 119 0 134 -4 139 -126 139 -67 0 -86 -4 -108 -21z
m199 -19 c11 -9 15 -34 15 -92 0 -114 -3 -118 -104 -118 -59 0 -87 4 -95 14
-8 9 -11 47 -9 107 3 90 4 93 28 101 36 10 148 3 165 -12z"/>
<path d="M2548 1418 c-3 -20 -10 -23 -61 -26 -73 -4 -66 -22 9 -22 l54 0 0
-40 c0 -29 -5 -43 -20 -52 -28 -18 -25 -30 8 -26 26 3 27 6 30 61 3 49 6 57
22 57 26 0 26 16 0 23 -12 3 -20 14 -20 26 0 28 -18 27 -22 -1z"/>
<path d="M2460 1342 c0 -13 30 -52 41 -52 15 0 10 26 -9 43 -20 18 -32 22 -32
9z"/>
<path d="M2010 1460 c0 -5 18 -10 40 -10 22 0 40 5 40 10 0 6 -18 10 -40 10
-22 0 -40 -4 -40 -10z"/>
<path d="M625 1441 c-56 -23 -82 -109 -51 -169 20 -38 44 -52 91 -52 55 0 95
44 95 104 0 58 -17 94 -51 112 -31 16 -54 17 -84 5z m75 -31 c24 -13 43 -70
34 -104 -7 -31 -48 -66 -76 -66 -35 0 -68 45 -68 91 0 70 54 109 110 79z"/>
<path d="M30 1330 c0 -131 18 -150 22 -22 l3 87 58 -88 c33 -48 64 -86 70 -84
8 2 13 41 15 110 2 90 0 107 -12 107 -12 0 -16 -17 -18 -82 l-3 -83 -54 83
c-29 45 -60 82 -67 82 -11 0 -14 -24 -14 -110z"/>
<path d="M310 1329 c0 -84 3 -110 13 -107 6 3 13 25 15 50 l3 46 55 4 c61 5
74 16 74 65 0 42 -21 53 -99 53 l-61 0 0 -111z m118 82 c8 -4 12 -19 10 -32
-3 -21 -9 -24 -50 -27 l-48 -3 0 35 c0 35 1 36 38 36 20 0 43 -4 50 -9z"/>
<path d="M1995 1410 c3 -5 28 -10 55 -10 27 0 52 5 55 10 4 6 -17 10 -55 10
-38 0 -59 -4 -55 -10z"/>
<path d="M1713 1350 c4 -35 2 -42 -23 -60 -15 -11 -33 -20 -39 -20 -6 0 -11
-7 -11 -16 0 -8 3 -14 8 -12 4 2 20 10 35 18 24 12 30 12 44 -3 15 -15 14 -17
-11 -27 -15 -5 -40 -10 -56 -10 -16 0 -32 -4 -35 -10 -9 -14 62 -12 105 3 28
10 42 10 70 0 41 -14 100 -17 100 -4 0 5 -22 11 -50 15 -55 7 -58 11 -34 37
22 24 10 39 -32 39 -19 0 -34 5 -34 10 0 6 11 10 24 10 31 0 62 28 47 43 -8 8
-15 6 -24 -7 -18 -25 -61 -18 -65 12 -2 12 -8 22 -14 22 -7 0 -9 -15 -5 -40z
m87 -75 c0 -2 -9 -9 -19 -14 -14 -8 -22 -7 -31 4 -11 13 -8 15 19 15 17 0 31
-2 31 -5z"/>
<path d="M1657 1350 c-16 -26 -16 -30 -3 -30 15 0 36 29 36 49 0 20 -16 11
-33 -19z"/>
<path d="M2010 1330 c0 -5 18 -10 40 -10 22 0 40 5 40 10 0 6 -18 10 -40 10
-22 0 -40 -4 -40 -10z"/>
<path d="M2115 1290 c-3 -5 3 -10 13 -10 11 0 27 -11 35 -24 15 -22 15 -25 1
-30 -9 -3 -24 -6 -35 -6 -10 0 -19 -7 -19 -15 0 -12 6 -12 45 -1 37 12 51 12
82 1 21 -7 41 -11 45 -8 16 9 7 21 -23 27 -29 5 -30 7 -15 28 24 33 4 48 -65
48 -32 0 -61 -4 -64 -10z m115 -19 c0 -12 -29 -23 -41 -15 -18 10 -9 24 16 24
14 0 25 -4 25 -9z"/>
<path d="M2017 1284 c-4 -4 -7 -22 -7 -40 0 -36 23 -51 61 -39 16 5 20 14 17
43 -3 33 -6 37 -33 40 -17 2 -34 0 -38 -4z m51 -36 c-2 -13 -10 -23 -18 -23
-8 0 -16 10 -18 23 -3 17 2 22 18 22 16 0 21 -5 18 -22z"/>
<path d="M1197 692 c-20 -22 -22 -53 -5 -70 28 -28 98 -4 98 34 0 20 -37 54
-58 54 -11 0 -26 -8 -35 -18z"/>
<path d="M4169 689 c-14 -14 -18 -27 -13 -42 9 -29 23 -38 59 -35 40 4 58 48
30 78 -23 26 -49 26 -76 -1z"/>
<path d="M4539 691 c-20 -16 -22 -23 -14 -47 8 -22 18 -30 41 -32 57 -6 86 52
42 82 -29 21 -41 20 -69 -3z"/>
<path d="M270 611 l0 -88 -39 19 c-33 16 -46 18 -78 9 -125 -34 -165 -223 -69
-329 29 -31 39 -36 84 -36 37 -1 58 5 80 21 29 21 30 22 35 3 4 -15 14 -20 41
-20 l36 0 0 255 0 255 -45 0 -45 0 0 -89z m-25 -143 c24 -11 25 -15 25 -94 0
-74 -2 -84 -22 -98 -72 -51 -136 18 -117 127 12 68 54 93 114 65z"/>
<path d="M727 549 c-21 -5 -51 -16 -67 -24 -29 -15 -29 -15 -13 -44 16 -27 18
-28 50 -15 40 17 95 18 111 2 21 -21 14 -47 -15 -53 -127 -27 -173 -58 -173
-119 0 -48 18 -85 51 -102 38 -19 68 -18 114 6 47 24 55 25 55 5 0 -11 11 -15
41 -15 l41 0 -4 133 c-4 142 -14 177 -58 208 -32 23 -85 30 -133 18z m93 -229
c0 -34 -4 -42 -31 -56 -25 -12 -37 -14 -56 -5 -37 17 -28 61 17 83 56 29 70
24 70 -22z"/>
<path d="M1630 550 c-19 -5 -47 -22 -62 -39 -55 -62 -27 -124 79 -172 44 -20
63 -34 63 -47 0 -44 -61 -56 -116 -23 l-32 19 -21 -29 -22 -29 33 -20 c69 -42
178 -34 217 16 29 37 34 60 21 100 -11 32 -22 41 -86 70 -75 35 -90 54 -62 82
16 16 43 15 79 -4 28 -14 31 -14 49 8 25 30 25 31 -7 50 -37 21 -90 28 -133
18z"/>
<path d="M3185 545 c-52 -18 -75 -48 -75 -94 0 -50 15 -67 95 -110 75 -39 84
-51 60 -75 -21 -21 -58 -20 -102 1 -35 16 -36 16 -54 -6 -25 -31 -24 -35 16
-54 58 -27 110 -32 159 -13 52 20 76 52 76 100 0 46 -25 73 -101 110 -71 34
-85 59 -45 77 21 10 34 9 66 -4 40 -15 40 -15 59 12 l20 28 -33 16 c-52 24
-97 28 -141 12z"/>
<path d="M3725 553 c-52 -12 -115 -35 -115 -43 0 -14 23 -60 29 -60 3 1 17 7
31 15 40 23 96 19 114 -7 9 -12 16 -26 16 -30 0 -4 -27 -12 -61 -19 -103 -20
-158 -74 -145 -143 14 -75 90 -103 169 -63 44 23 47 23 47 6 0 -15 8 -19 40
-19 l40 0 0 125 c0 177 -21 222 -115 238 -16 3 -39 3 -50 0z m73 -230 c-4 -49
-45 -81 -85 -67 -22 7 -28 16 -28 39 0 24 7 33 35 47 19 10 45 18 58 18 21 0
23 -4 20 -37z"/>
<path d="M4997 548 c-114 -30 -161 -194 -86 -300 30 -41 102 -72 152 -64 94
15 150 85 150 186 0 61 -17 102 -60 142 -23 21 -93 51 -113 47 -3 -1 -22 -6
-43 -11z m94 -87 c21 -17 24 -28 24 -89 0 -83 -18 -112 -71 -112 -53 0 -77 39
-72 117 4 71 26 103 68 103 15 0 38 -9 51 -19z"/>
<path d="M1190 370 l0 -180 45 0 45 0 0 180 0 180 -45 0 -45 0 0 -180z"/>
<path d="M2071 378 c72 -179 76 -202 42 -240 -9 -10 -28 -18 -43 -18 -27 0
-39 -19 -40 -57 0 -21 81 -16 117 7 42 25 59 60 131 270 33 96 63 183 67 193
6 15 1 17 -38 17 l-46 0 -15 -52 c-8 -29 -25 -89 -37 -133 -12 -44 -22 -81
-24 -83 -1 -1 -21 59 -45 133 l-44 135 -47 0 -47 0 69 -172z"/>
<path d="M4160 370 l0 -180 45 0 45 0 0 180 0 180 -45 0 -45 0 0 -180z"/>
<path d="M4530 354 c0 -115 -4 -203 -10 -215 -6 -10 -21 -19 -34 -19 -24 0
-36 -17 -36 -51 0 -29 101 -28 130 1 36 36 40 66 40 276 l0 204 -45 0 -45 0 0
-196z"/>
<path d="M2540 115 l0 -25 170 0 170 0 0 25 0 25 -170 0 -170 0 0 -25z"/>
</g>
</svg>
