<?xml version="1.0" standalone="no"?>
<!DOCTYPE svg PUBLIC "-//W3C//DTD SVG 20010904//EN"
 "http://www.w3.org/TR/2001/REC-SVG-20010904/DTD/svg10.dtd">
<svg version="1.0" xmlns="http://www.w3.org/2000/svg"
 width="1000.000000pt" height="1000.000000pt" viewBox="0 0 1000.000000 1000.000000"
 preserveAspectRatio="xMidYMid meet">

<g transform="translate(0.000000,1000.000000) scale(0.100000,-0.100000)"
fill="#000000" stroke="none">
<path d="M5025 9274 c-17 -8 -41 -27 -55 -43 -14 -15 -74 -63 -135 -106 -586
-419 -1232 -950 -1751 -1442 -645 -610 -1441 -1554 -2059 -2442 -44 -62 -85
-115 -91 -118 -6 -2 -24 -33 -39 -69 -27 -64 -27 -65 -11 -108 22 -58 53 -77
147 -88 66 -8 142 -3 520 37 243 25 444 44 447 41 2 -3 8 -247 13 -543 12
-773 29 -1120 115 -2278 96 -1292 87 -1218 148 -1218 64 1 65 12 36 373 -35
429 -109 1444 -129 1780 -32 509 -41 761 -51 1362 -7 487 -11 562 -24 577 -9
10 -16 24 -16 32 0 26 -22 39 -65 39 -23 0 -236 -20 -475 -45 -398 -42 -520
-48 -552 -29 -4 2 15 35 42 72 27 37 102 141 166 232 422 595 947 1245 1411
1747 582 628 1239 1210 2054 1818 123 92 266 197 317 232 l93 65 117 -77 c308
-204 813 -576 1159 -853 898 -719 1528 -1350 2272 -2277 412 -514 641 -831
641 -889 0 -17 -79 -32 -125 -25 -22 4 -246 13 -498 20 -421 12 -459 12 -474
-3 -9 -9 -16 -30 -15 -47 0 -23 -4 -30 -21 -33 -39 -6 -42 -31 -35 -289 28
-1009 28 -2448 0 -3433 -5 -154 -3 -247 3 -259 24 -48 93 -36 106 18 14 60 32
1147 32 1945 -1 757 -17 1864 -29 1954 l-5 39 298 -8 c164 -4 399 -10 523 -14
233 -6 268 -2 326 36 30 19 54 63 54 98 0 43 -41 114 -170 290 -454 624 -942
1211 -1452 1746 -563 590 -1310 1223 -2153 1826 -222 158 -480 333 -491 333
-4 0 -15 6 -23 14 -26 22 -65 26 -96 10z"/>
<path d="M5184 7050 c-29 -11 -64 -108 -64 -177 0 -29 -3 -32 -42 -38 -104
-17 -147 -60 -113 -111 16 -24 21 -26 64 -21 25 3 54 9 64 12 16 7 17 -3 17
-129 0 -169 11 -206 63 -206 57 0 61 13 58 191 l-2 159 75 0 c87 0 83 8 66
-113 -23 -165 -32 -192 -111 -352 -85 -173 -102 -231 -74 -258 34 -35 105 -10
105 37 0 9 31 77 70 151 84 162 105 229 128 405 l17 135 88 5 c94 5 107 13
107 61 0 43 -28 59 -105 59 l-67 0 6 33 c4 17 10 55 13 83 5 48 3 53 -20 69
-54 35 -89 -2 -108 -110 -6 -38 -17 -73 -23 -77 -6 -4 -44 -8 -83 -8 l-73 0 0
28 c1 15 7 45 15 67 20 54 19 71 -5 95 -22 22 -33 23 -66 10z"/>
<path d="M4229 6988 c-7 -13 -20 -57 -29 -98 l-16 -75 -69 -17 c-71 -17 -95
-36 -95 -73 0 -40 32 -58 89 -50 28 4 51 3 51 -2 0 -4 -11 -73 -25 -153 -30
-177 -31 -194 -4 -219 20 -18 31 -19 145 -14 l123 6 41 -40 c22 -22 40 -50 40
-61 0 -12 -25 -43 -61 -77 -56 -51 -114 -85 -241 -139 -34 -14 -38 -20 -38
-51 0 -26 6 -39 25 -51 23 -15 29 -15 78 1 126 41 283 152 336 239 43 70 19
161 -63 233 -55 49 -101 63 -200 63 -42 0 -76 3 -76 6 0 9 39 244 45 270 4 17
22 24 107 44 128 29 148 40 148 83 0 18 -5 38 -12 45 -16 16 -75 15 -134 -3
-84 -25 -84 -25 -68 46 13 55 13 65 -1 85 -21 33 -79 34 -96 2z"/>
<path d="M6152 6810 c-79 -59 -180 -164 -302 -313 -35 -43 -92 -100 -127 -128
-55 -43 -63 -54 -63 -83 0 -38 19 -58 54 -58 23 0 165 106 186 140 9 13 10 4
5 -37 -3 -29 -10 -103 -16 -165 -5 -61 -12 -126 -15 -144 -9 -47 17 -82 61
-82 45 0 52 15 65 136 6 55 15 140 20 191 6 50 10 129 10 175 l0 84 65 71 c36
39 98 96 139 127 82 62 96 85 72 121 -27 41 -64 33 -154 -35z"/>
<path d="M3505 6774 c-125 -27 -168 -62 -141 -115 15 -30 49 -35 117 -15 28 9
81 19 116 22 72 8 93 22 93 64 0 59 -54 71 -185 44z"/>
<path d="M6600 6670 c-24 -24 -26 -63 -5 -80 8 -7 42 -25 74 -40 68 -33 186
-111 250 -168 l44 -38 -58 -90 c-32 -49 -84 -141 -117 -204 -90 -177 -71 -171
-191 -54 -172 169 -202 188 -241 148 -38 -38 -23 -62 138 -216 162 -155 190
-171 248 -149 37 14 88 85 147 206 27 55 82 150 121 210 77 121 87 145 74 184
-24 69 -370 311 -444 311 -11 0 -29 -9 -40 -20z"/>
<path d="M2498 6569 c-31 -18 -38 -43 -24 -90 7 -24 16 -63 20 -86 l6 -41 -73
-36 c-97 -49 -129 -76 -129 -109 0 -66 53 -74 139 -22 32 19 61 35 64 35 7 0
24 -112 34 -220 l6 -65 -54 -38 c-124 -88 -162 -205 -97 -294 34 -46 116 -93
162 -93 47 0 95 26 113 61 14 26 16 56 13 167 l-3 136 65 38 c140 82 232 99
275 52 14 -15 25 -33 25 -40 0 -8 -18 -58 -40 -113 -43 -108 -48 -141 -24
-165 30 -31 104 -9 104 31 0 6 18 56 40 111 50 125 51 163 7 228 -79 115 -218
125 -395 28 -34 -19 -66 -34 -71 -34 -4 0 -11 30 -15 68 -3 37 -9 94 -12 127
l-6 60 96 35 c54 19 102 40 108 47 15 19 13 62 -5 80 -22 22 -52 19 -135 -11
-40 -14 -75 -26 -78 -26 -2 0 -4 10 -4 23 0 45 -30 132 -51 150 -24 19 -37 21
-61 6z m58 -936 c-8 -8 -63 26 -70 42 -12 33 -5 53 32 91 l37 38 3 -83 c2 -46
1 -86 -2 -88z"/>
<path d="M3530 6431 c-76 -24 -137 -57 -150 -80 -15 -29 -12 -56 8 -74 24 -22
58 -21 90 2 62 44 202 67 230 39 7 -7 12 -35 12 -63 0 -45 -7 -61 -59 -141
-83 -129 -131 -217 -131 -242 0 -29 26 -52 59 -52 34 0 41 8 96 103 23 39 66
110 96 156 50 79 54 89 57 157 5 91 -9 133 -59 178 -38 35 -41 36 -117 35 -45
0 -100 -7 -132 -18z"/>
<path d="M2920 6400 c-42 -42 -22 -74 101 -155 80 -53 123 -59 140 -21 19 41
4 71 -53 107 -29 18 -69 46 -89 61 -43 33 -72 35 -99 8z"/>
<path d="M7066 5964 c-40 -39 -5 -104 55 -104 29 0 98 -50 159 -115 55 -58
151 -127 177 -127 34 0 53 20 53 58 0 26 -7 39 -37 61 -20 15 -77 66 -126 112
-50 46 -112 93 -141 107 -59 27 -118 31 -140 8z"/>
<path d="M8020 5923 c-42 -22 -73 -52 -143 -138 -97 -120 -167 -230 -167 -262
0 -31 30 -51 91 -58 l56 -7 91 99 c189 205 243 304 195 361 -30 35 -63 36
-123 5z"/>
<path d="M7559 5291 c-43 -43 -41 -101 5 -147 42 -42 60 -43 98 -2 27 29 29
35 23 82 -13 92 -70 123 -126 67z"/>
<path d="M4858 5159 c-212 -16 -453 -83 -700 -194 l-128 -57 -47 23 c-58 28
-185 37 -276 19 -239 -46 -499 -244 -616 -470 -74 -141 -92 -283 -50 -397 24
-65 109 -157 155 -169 29 -7 29 7 4 -154 -13 -85 -13 -343 0 -450 15 -123 66
-321 109 -420 74 -171 168 -291 287 -366 l72 -46 -66 -87 c-84 -110 -164 -277
-200 -415 -24 -93 -30 -106 -48 -106 -32 0 -74 -38 -74 -66 0 -36 36 -67 68
-59 57 15 142 26 257 35 66 4 188 13 270 19 83 6 160 13 173 16 38 9 1545 -14
1692 -26 138 -11 779 -13 1065 -4 118 4 163 9 174 19 18 19 17 64 -3 84 -19
19 13 18 -656 14 -258 -2 -500 1 -575 7 -71 6 -470 15 -885 21 -745 10 -798 9
-1120 -20 -58 -6 -134 -10 -169 -10 l-63 0 7 38 c11 57 70 206 111 275 20 34
61 93 93 131 78 97 91 117 91 146 0 40 -25 66 -100 106 -91 48 -149 99 -205
184 -131 197 -195 447 -195 761 0 146 13 269 41 371 8 33 14 38 47 44 236 40
395 118 534 261 151 157 234 380 195 528 -14 55 -14 61 0 72 26 20 242 109
349 143 234 75 493 102 780 81 259 -18 401 -54 636 -162 71 -32 132 -59 136
-59 4 0 8 -37 8 -83 2 -106 24 -189 84 -312 58 -119 119 -199 201 -262 107
-83 177 -116 309 -143 96 -19 85 -4 121 -175 46 -222 43 -416 -7 -576 -39
-125 -80 -206 -198 -393 -128 -205 -134 -236 -51 -285 102 -60 173 -142 250
-289 53 -101 74 -119 116 -98 39 19 36 62 -11 158 -67 133 -172 257 -268 317
-9 6 15 52 93 177 190 305 247 508 224 792 -7 94 -32 234 -66 377 -4 18 3 23
45 33 146 38 192 150 142 348 -36 143 -145 339 -255 462 -65 72 -200 176 -272
209 -75 35 -175 43 -238 19 -79 -31 -127 -74 -181 -164 -1 -2 -58 22 -125 53
-155 71 -328 130 -442 150 -187 32 -427 41 -649 24z"/>
<path d="M5670 3950 c-49 -12 -86 -127 -61 -188 12 -28 47 -52 75 -52 23 0 75
67 82 105 16 89 -28 152 -96 135z"/>
<path d="M4250 3893 c-49 -44 -53 -130 -10 -173 27 -27 50 -25 99 6 75 50 87
120 29 169 -39 33 -80 32 -118 -2z"/>
<path d="M6243 3839 c-78 -15 -205 -72 -227 -102 -19 -26 -19 -30 -6 -54 27
-48 42 -50 112 -15 34 18 97 40 138 51 78 19 103 41 93 82 -10 37 -47 51 -110
38z"/>
<path d="M4905 3776 c-90 -29 -124 -47 -163 -87 -47 -49 -51 -87 -14 -162 69
-139 231 -268 288 -229 37 25 169 226 192 291 57 163 -93 256 -303 187z m192
-112 c3 -10 2 -29 -4 -43 -16 -43 -116 -191 -129 -191 -17 0 -107 101 -126
141 -16 32 -16 34 5 48 72 51 240 80 254 45z"/>
<path d="M3587 3706 c-53 -19 -67 -34 -67 -71 0 -44 20 -59 67 -50 88 16 230
17 268 1 48 -20 88 -5 93 36 5 43 -14 66 -70 83 -65 19 -238 19 -291 1z"/>
<path d="M6124 3555 c-25 -26 -26 -52 -2 -82 13 -16 260 -18 289 -3 13 7 19
21 19 45 0 55 -24 65 -163 65 -113 0 -119 -1 -143 -25z"/>
<path d="M3745 3493 c-146 -68 -179 -92 -183 -131 -2 -19 2 -40 9 -48 16 -20
66 -17 98 5 36 26 200 101 220 101 31 0 61 30 61 60 0 74 -65 78 -205 13z"/>
<path d="M4764 3137 c-21 -19 -26 -29 -21 -50 25 -96 220 -181 374 -163 98 11
185 73 224 159 18 39 -9 77 -56 77 -29 0 -38 -6 -65 -45 -28 -40 -56 -65 -76
-65 -3 0 -1 7 6 15 7 8 8 15 4 15 -5 0 -15 -10 -23 -21 -12 -20 -18 -21 -83
-15 -83 8 -160 38 -191 76 -32 40 -60 45 -93 17z"/>
<path d="M4723 1041 c-2148 -24 -2344 -27 -2359 -43 -21 -20 -21 -65 -1 -85
18 -18 -293 -20 2962 13 1862 19 2657 30 2675 38 28 13 40 67 19 92 -16 19
-378 17 -3296 -15z"/>
</g>
</svg>
