<?xml version="1.0" standalone="no"?>
<!DOCTYPE svg PUBLIC "-//W3C//DTD SVG 20010904//EN"
 "http://www.w3.org/TR/2001/REC-SVG-20010904/DTD/svg10.dtd">
<svg version="1.0" xmlns="http://www.w3.org/2000/svg"
 width="1000.000000pt" height="1000.000000pt" viewBox="0 0 1000.000000 1000.000000"
 preserveAspectRatio="xMidYMid meet">

<g transform="translate(0.000000,1000.000000) scale(0.100000,-0.100000)"
fill="#000000" stroke="none">
<path d="M4913 9283 c-12 -2 -27 -11 -33 -19 -7 -8 -17 -14 -21 -14 -26 0
-559 -374 -904 -634 -1074 -809 -1858 -1570 -2691 -2611 -281 -351 -613 -798
-651 -877 -47 -98 -16 -164 94 -200 28 -10 94 -11 263 -7 124 4 359 10 523 14
l298 8 -5 -39 c-12 -90 -28 -1197 -29 -1954 0 -798 18 -1885 32 -1945 13 -54
82 -66 106 -18 6 12 8 105 3 259 -28 985 -28 2424 0 3433 7 258 4 283 -35 289
-17 3 -21 10 -21 33 1 17 -6 38 -15 47 -15 15 -53 15 -474 3 -252 -7 -476 -16
-498 -20 -46 -7 -125 8 -125 25 0 58 229 375 641 889 744 927 1374 1558 2272
2277 346 277 851 649 1159 853 l117 77 93 -65 c51 -35 194 -140 317 -232 815
-608 1472 -1190 2054 -1818 464 -502 989 -1152 1411 -1747 64 -91 139 -195
166 -232 27 -37 46 -70 42 -72 -32 -19 -154 -13 -552 29 -239 25 -452 45 -475
45 -43 0 -65 -13 -65 -39 0 -8 -7 -22 -16 -32 -13 -15 -17 -90 -24 -577 -10
-601 -19 -853 -51 -1362 -20 -336 -94 -1351 -129 -1780 -29 -361 -28 -372 36
-372 61 -1 52 -75 148 1217 86 1158 103 1505 115 2278 5 296 11 540 13 543 3
3 204 -16 447 -41 570 -60 626 -55 667 51 16 43 16 44 -11 108 -15 36 -33 67
-39 69 -6 3 -47 56 -91 118 -618 888 -1414 1832 -2059 2442 -524 496 -1185
1040 -1783 1466 -57 40 -103 77 -103 81 0 12 -50 46 -75 52 -11 3 -30 3 -42 1z"/>
<path d="M4944 7090 c-29 -11 -64 -108 -64 -177 0 -29 -3 -32 -42 -38 -104
-17 -147 -60 -113 -111 16 -24 21 -26 64 -21 25 3 54 9 64 12 16 7 17 -3 17
-129 0 -169 11 -206 63 -206 57 0 61 13 58 191 l-2 159 75 0 c87 0 83 8 66
-113 -23 -165 -32 -192 -111 -352 -85 -173 -102 -231 -74 -258 34 -35 105 -10
105 37 0 9 31 77 70 151 84 162 105 229 128 405 l17 135 88 5 c94 5 107 13
107 61 0 43 -28 59 -105 59 l-67 0 6 33 c4 17 10 55 13 83 5 48 3 53 -20 69
-54 35 -89 -2 -108 -110 -6 -38 -17 -73 -23 -77 -6 -4 -44 -8 -83 -8 l-73 0 0
28 c1 15 7 45 15 67 20 54 19 71 -5 95 -22 22 -33 23 -66 10z"/>
<path d="M3989 7028 c-7 -13 -20 -57 -29 -98 l-16 -75 -69 -17 c-71 -17 -95
-36 -95 -73 0 -40 32 -58 89 -50 28 4 51 3 51 -2 0 -4 -11 -73 -25 -153 -30
-177 -31 -194 -4 -219 20 -18 31 -19 145 -14 l123 6 41 -40 c22 -22 40 -50 40
-61 0 -12 -25 -43 -61 -77 -56 -51 -114 -85 -241 -139 -34 -14 -38 -20 -38
-51 0 -26 6 -39 25 -51 23 -15 29 -15 78 1 126 41 283 152 336 239 43 70 19
161 -63 233 -55 49 -101 63 -200 63 -42 0 -76 3 -76 6 0 9 39 244 45 270 4 17
22 24 107 44 128 29 148 40 148 83 0 18 -5 38 -12 45 -16 16 -75 15 -134 -3
-84 -25 -84 -25 -68 46 13 55 13 65 -1 85 -21 33 -79 34 -96 2z"/>
<path d="M5912 6850 c-79 -59 -180 -164 -302 -313 -35 -43 -92 -100 -127 -128
-55 -43 -63 -54 -63 -83 0 -38 19 -58 54 -58 23 0 165 106 186 140 9 13 10 4
5 -37 -3 -29 -10 -103 -16 -165 -5 -61 -12 -126 -15 -144 -9 -47 17 -82 61
-82 45 0 52 15 65 136 6 55 15 140 20 191 6 50 10 129 10 175 l0 84 65 71 c36
39 98 96 139 127 82 62 96 85 72 121 -27 41 -64 33 -154 -35z"/>
<path d="M3265 6814 c-125 -27 -168 -62 -141 -115 15 -30 49 -35 117 -15 28 9
81 19 116 22 72 8 93 22 93 64 0 59 -54 71 -185 44z"/>
<path d="M6360 6710 c-24 -24 -26 -63 -5 -80 8 -7 42 -25 74 -40 68 -33 186
-111 250 -168 l44 -38 -58 -90 c-32 -49 -84 -141 -117 -204 -90 -177 -71 -171
-191 -54 -172 169 -202 188 -241 148 -38 -38 -23 -62 138 -216 162 -155 190
-171 248 -149 37 14 88 85 147 206 27 55 82 150 121 210 77 121 87 145 74 184
-24 69 -370 311 -444 311 -11 0 -29 -9 -40 -20z"/>
<path d="M2258 6609 c-31 -18 -38 -43 -24 -90 7 -24 16 -63 20 -86 l6 -41 -73
-36 c-97 -49 -129 -76 -129 -109 0 -66 53 -74 139 -22 32 19 61 35 64 35 7 0
24 -112 34 -220 l6 -65 -54 -38 c-124 -88 -162 -205 -97 -294 34 -46 116 -93
162 -93 47 0 95 26 113 61 14 26 16 56 13 167 l-3 136 65 38 c140 82 232 99
275 52 14 -15 25 -33 25 -40 0 -8 -18 -58 -40 -113 -43 -108 -48 -141 -24
-165 30 -31 104 -9 104 31 0 6 18 56 40 111 50 125 51 163 7 228 -79 115 -218
125 -395 28 -34 -19 -66 -34 -71 -34 -4 0 -11 30 -15 68 -3 37 -9 94 -12 127
l-6 60 96 35 c54 19 102 40 108 47 15 19 13 62 -5 80 -22 22 -52 19 -135 -11
-40 -14 -75 -26 -78 -26 -2 0 -4 10 -4 23 0 45 -30 132 -51 150 -24 19 -37 21
-61 6z m58 -936 c-8 -8 -63 26 -70 42 -12 33 -5 53 32 91 l37 38 3 -83 c2 -46
1 -86 -2 -88z"/>
<path d="M3290 6471 c-76 -24 -137 -57 -150 -80 -15 -29 -12 -56 8 -74 24 -22
58 -21 90 2 62 44 202 67 230 39 7 -7 12 -35 12 -63 0 -45 -7 -61 -59 -141
-83 -129 -131 -217 -131 -242 0 -29 26 -52 59 -52 34 0 41 8 96 103 23 39 66
110 96 156 50 79 54 89 57 157 5 91 -9 133 -59 178 -38 35 -41 36 -117 35 -45
0 -100 -7 -132 -18z"/>
<path d="M2680 6440 c-42 -42 -22 -74 101 -155 80 -53 123 -59 140 -21 19 41
4 71 -53 107 -29 18 -69 46 -89 61 -43 33 -72 35 -99 8z"/>
<path d="M6826 6004 c-40 -39 -5 -104 55 -104 29 0 98 -50 159 -115 55 -58
151 -127 177 -127 34 0 53 20 53 58 0 26 -7 39 -37 61 -20 15 -77 66 -126 112
-50 46 -112 93 -141 107 -59 27 -118 31 -140 8z"/>
<path d="M7780 5963 c-42 -22 -73 -52 -143 -138 -97 -120 -167 -230 -167 -262
0 -31 30 -51 91 -58 l56 -7 91 99 c189 205 243 304 195 361 -30 35 -63 36
-123 5z"/>
<path d="M4118 5470 c-26 -17 -60 -46 -75 -65 -65 -78 -92 -114 -133 -180 -24
-38 -51 -79 -60 -90 -40 -46 -172 -302 -177 -341 -5 -37 -2 -43 24 -62 43 -31
69 -13 100 68 13 35 32 74 42 85 10 11 37 56 61 99 23 44 46 84 51 90 5 6 28
40 52 76 23 36 47 70 53 75 6 6 21 26 34 45 32 49 92 110 107 110 18 0 70
-108 122 -255 24 -66 66 -149 86 -169 26 -25 72 -20 92 10 17 26 16 28 -22
103 -22 42 -39 79 -37 83 1 4 -16 47 -39 95 -22 49 -49 111 -60 139 -27 71
-66 106 -126 111 -41 4 -55 0 -95 -27z"/>
<path d="M5824 5404 c-85 -45 -247 -208 -360 -361 -52 -72 -58 -118 -16 -139
38 -19 59 -6 109 65 56 78 84 112 178 206 91 92 145 136 156 130 13 -9 47
-126 54 -187 3 -29 10 -83 15 -119 5 -37 10 -99 11 -138 1 -63 4 -74 26 -91
29 -23 62 -14 80 21 15 29 16 122 3 204 -5 33 -12 87 -14 120 -5 62 -57 238
-79 265 -22 28 -61 50 -88 50 -14 0 -48 -12 -75 -26z"/>
<path d="M7319 5331 c-43 -43 -41 -101 5 -147 42 -42 60 -43 98 -2 27 29 29
35 23 82 -13 92 -70 123 -126 67z"/>
<path d="M4998 4995 c-2 -3 -58 -7 -124 -10 -122 -5 -245 -19 -299 -33 -26 -7
-30 -14 -33 -46 -6 -64 11 -71 142 -56 143 17 268 23 466 24 184 1 184 1 196
25 16 30 4 63 -27 77 -24 11 -311 28 -321 19z"/>
<path d="M3554 4636 c-95 -75 -180 -174 -229 -267 -20 -38 -40 -71 -45 -74 -5
-3 -30 -60 -56 -128 -26 -67 -50 -126 -54 -132 -9 -12 -35 -114 -57 -223 -9
-43 -17 -149 -20 -237 -4 -155 3 -216 42 -375 10 -45 49 -133 81 -186 20 -32
46 -76 58 -96 30 -53 179 -204 213 -215 36 -13 71 0 82 29 12 34 2 57 -37 83
-37 25 -172 173 -172 188 0 5 -8 21 -19 35 -43 61 -74 138 -102 249 -27 105
-30 134 -29 267 0 96 5 170 15 210 8 33 26 108 40 165 13 58 28 107 33 110 4
3 24 49 45 101 73 187 195 347 336 443 46 32 55 71 23 100 -33 30 -63 20 -148
-47z"/>
<path d="M6065 4692 c-33 -7 -45 -23 -45 -57 0 -37 12 -50 55 -61 51 -13 107
-53 207 -152 73 -72 105 -113 129 -162 29 -58 95 -232 104 -270 2 -8 4 -15 5
-15 1 0 3 -7 5 -15 1 -8 16 -69 33 -135 81 -321 68 -460 -70 -735 -46 -90 -99
-189 -119 -220 -48 -73 -145 -226 -191 -303 -56 -92 -49 -132 38 -227 64 -70
170 -232 189 -291 10 -30 18 -55 18 -56 -1 -1 5 -24 13 -49 17 -57 18 -88 3
-79 -6 4 -351 9 -767 10 -416 2 -813 6 -882 10 -261 13 -1727 4 -1751 -11 -5
-3 -9 -23 -9 -45 0 -63 9 -64 350 -61 545 5 1334 4 1445 -3 61 -4 443 -8 850
-10 438 -2 750 -7 765 -12 21 -9 154 -17 238 -15 32 0 52 20 52 51 -1 48 -24
65 -93 69 l-63 4 -13 67 c-7 36 -14 75 -16 86 -2 11 -4 20 -5 20 -1 0 -3 7 -5
16 -14 74 -147 291 -234 382 l-45 47 24 46 c14 25 34 56 46 67 12 12 43 59 70
105 27 45 68 115 92 155 24 39 67 121 97 181 30 60 59 114 63 120 31 40 82
258 82 350 0 28 -5 78 -10 112 -5 34 -12 83 -15 110 -6 55 -55 250 -86 339
-68 195 -85 236 -122 297 -42 70 -205 238 -284 291 -46 32 -118 56 -148 49z"/>
<path d="M4313 3924 c-48 -24 -87 -86 -79 -126 8 -42 32 -66 71 -74 34 -6 105
17 105 35 0 6 15 17 34 25 28 12 35 21 41 55 7 43 -12 90 -38 92 -73 8 -107 6
-134 -7z"/>
<path d="M5613 3886 c-80 -45 -84 -144 -6 -182 21 -10 40 -19 43 -19 3 -1 13
-5 22 -9 40 -18 138 43 138 86 0 36 -47 104 -84 122 -37 17 -84 18 -113 2z"/>
<path d="M4903 3726 c-60 -15 -97 -36 -135 -78 -29 -32 -35 -70 -22 -138 8
-38 88 -121 145 -150 66 -34 139 -25 139 16 0 8 7 14 15 14 7 0 18 6 22 14 4
8 27 35 51 60 44 47 72 100 72 136 0 40 -37 97 -72 109 -18 7 -41 17 -50 22
-24 12 -102 10 -165 -5z m156 -115 c16 -11 19 -6 -53 -93 -22 -27 -45 -48 -51
-48 -7 0 -31 14 -53 30 -66 47 -56 85 27 111 36 10 113 10 130 0z"/>
<path d="M3940 3610 c-86 -8 -192 -30 -242 -49 -24 -9 -28 -16 -28 -50 0 -46
19 -65 57 -58 16 3 66 12 113 21 47 9 127 18 179 21 103 5 124 15 124 60 0 57
-47 70 -203 55z"/>
<path d="M5990 3559 c-19 -5 -57 -11 -84 -14 -27 -3 -63 -13 -80 -23 -26 -15
-32 -25 -34 -60 -3 -37 0 -43 23 -52 19 -7 35 -6 61 5 20 8 38 14 42 14 4 -1
9 0 12 1 3 1 16 3 30 5 202 25 213 29 213 79 0 44 -19 56 -87 55 -33 -1 -77
-5 -96 -10z"/>
<path d="M3965 3419 c-160 -75 -195 -100 -195 -138 0 -31 27 -61 54 -61 10 0
45 16 77 35 33 19 64 35 69 35 22 0 202 95 211 112 7 13 6 27 -3 46 -23 47
-64 41 -213 -29z"/>
<path d="M5751 3296 c-7 -8 -11 -29 -9 -48 3 -33 12 -41 88 -72 57 -23 154
-66 172 -76 44 -24 91 -5 102 42 9 39 -15 59 -109 92 -44 16 -82 31 -85 35 -9
13 -90 41 -119 41 -16 0 -34 -6 -40 -14z"/>
<path d="M4765 3180 c-28 -31 -18 -72 34 -136 57 -70 105 -97 176 -98 68 -1
107 8 169 38 105 51 154 127 110 170 -23 24 -46 20 -95 -17 -77 -59 -97 -67
-169 -70 -50 -2 -91 21 -110 63 -7 14 -10 25 -8 26 1 0 -3 8 -10 16 -19 23
-79 28 -97 8z"/>
<path d="M3364 2627 c-21 -19 -46 -36 -55 -39 -28 -10 -115 -136 -170 -245
-47 -95 -51 -108 -43 -141 8 -32 13 -37 42 -40 44 -4 55 7 87 86 37 94 143
251 169 252 6 1 30 18 54 39 68 59 64 121 -7 121 -28 0 -48 -9 -77 -33z"/>
<path d="M1981 1056 c-21 -25 -9 -79 19 -92 18 -8 813 -19 2675 -38 3255 -33
2944 -31 2962 -13 20 20 20 65 -1 85 -15 16 -219 19 -2464 44 -2971 32 -3175
33 -3191 14z"/>
</g>
</svg>
